<svg width="42" height="42" viewBox="0 0 42 42" fill="none" xmlns="http://www.w3.org/2000/svg">
<path d="M20.6629 0.989746C23.3707 0.989746 25.9675 2.0654 27.8822 3.98008C29.7969 5.89475 30.8725 8.49161 30.8725 11.1994C30.8725 13.9071 29.7969 16.504 27.8822 18.4187C25.9675 20.3334 23.3707 21.409 20.6629 21.409C17.9552 21.409 15.3583 20.3334 13.4436 18.4187C11.5289 16.504 10.4533 13.9071 10.4533 11.1994C10.4533 8.49161 11.5289 5.89475 13.4436 3.98008C15.3583 2.0654 17.9552 0.989746 20.6629 0.989746ZM20.6629 6.09456C19.309 6.09456 18.0106 6.63239 17.0533 7.58973C16.0959 8.54707 15.5581 9.8455 15.5581 11.1994C15.5581 12.5533 16.0959 13.8517 17.0533 14.809C18.0106 15.7664 19.309 16.3042 20.6629 16.3042C22.0168 16.3042 23.3152 15.7664 24.2726 14.809C25.2299 13.8517 25.7677 12.5533 25.7677 11.1994C25.7677 9.8455 25.2299 8.54707 24.2726 7.58973C23.3152 6.63239 22.0168 6.09456 20.6629 6.09456ZM20.6629 23.9614C27.4778 23.9614 41.0822 27.3561 41.0822 34.171V41.8283H0.243652V34.171C0.243652 27.3561 13.848 23.9614 20.6629 23.9614ZM20.6629 28.811C13.0823 28.811 5.09323 32.5375 5.09323 34.171V36.9787H36.2326V34.171C36.2326 32.5375 28.2436 28.811 20.6629 28.811Z" fill="#225E8A"/>
</svg>
