<svg width="42" height="42" viewBox="0 0 42 42" fill="none" xmlns="http://www.w3.org/2000/svg">
<path d="M20.6629 41.8078C14.9625 41.8078 10.1342 39.8297 6.178 35.8734C2.22177 31.9172 0.243652 27.0889 0.243652 21.3885C0.243652 15.6881 2.22177 10.8598 6.178 6.90359C10.1342 2.94736 14.9625 0.969247 20.6629 0.969247C23.5982 0.969247 26.4058 1.57502 29.0859 2.78656C31.7659 3.9981 34.0631 5.73204 35.9774 7.98837V3.52165C35.9774 2.79847 36.2224 2.1927 36.7125 1.70434C37.2025 1.21598 37.8083 0.970949 38.5298 0.969247C39.2513 0.967545 39.8579 1.21258 40.3496 1.70434C40.8414 2.1961 41.0856 2.80188 41.0822 3.52165V16.2837C41.0822 17.0069 40.8371 17.6135 40.3471 18.1036C39.857 18.5936 39.2513 18.8378 38.5298 18.8361H25.7677C25.0445 18.8361 24.4388 18.5911 23.9504 18.101C23.4621 17.6109 23.217 17.0052 23.2153 16.2837C23.2136 15.5622 23.4587 14.9564 23.9504 14.4664C24.4422 13.9763 25.048 13.7313 25.7677 13.7313H33.9354C32.5742 11.349 30.7134 9.47727 28.3533 8.11599C25.9932 6.7547 23.4297 6.07406 20.6629 6.07406C16.4089 6.07406 12.793 7.56297 9.81518 10.5408C6.83737 13.5186 5.34847 17.1345 5.34847 21.3885C5.34847 25.6425 6.83737 29.2584 9.81518 32.2362C12.793 35.2141 16.4089 36.703 20.6629 36.703C23.5556 36.703 26.2042 35.9696 28.6086 34.5028C31.0129 33.036 32.8736 31.0681 34.1907 28.5991C34.531 28.0035 35.01 27.5892 35.6277 27.356C36.2454 27.1229 36.8724 27.1119 37.5088 27.3229C38.1895 27.5356 38.6787 27.9822 38.9764 28.6629C39.2742 29.3435 39.253 29.9816 38.9126 30.5772C37.1685 33.9804 34.6799 36.703 31.4468 38.7449C28.2138 40.7868 24.6191 41.8078 20.6629 41.8078Z" fill="#225E8A"/>
</svg>
