<svg width="25" height="20" viewBox="0 0 25 20" fill="none" xmlns="http://www.w3.org/2000/svg">
<path d="M2.00013 8.00507H17.1721L12.5861 3.41907C12.4004 3.23338 12.2531 3.01293 12.1526 2.77032C12.0521 2.52771 12.0004 2.26767 12.0004 2.00507C12.0004 1.74246 12.0521 1.48243 12.1526 1.23982C12.2531 0.997203 12.4004 0.776757 12.5861 0.591068C12.7718 0.405379 12.9923 0.258083 13.2349 0.157589C13.4775 0.0570947 13.7375 0.00537109 14.0001 0.00537109C14.2627 0.0053711 14.5228 0.0570947 14.7654 0.157589C15.008 0.258083 15.2284 0.40538 15.4141 0.591069L24.8281 10.0051L15.4141 19.4191C15.2288 19.6054 15.0085 19.7533 14.7658 19.8543C14.5232 19.9552 14.2629 20.0071 14.0001 20.0071C13.7373 20.0071 13.4771 19.9552 13.2344 19.8543C12.9918 19.7533 12.7714 19.6054 12.5861 19.4191C12.2112 19.044 12.0006 18.5354 12.0006 18.0051C12.0006 17.4747 12.2112 16.9661 12.5861 16.5911L17.1721 12.0051H2.00013C1.46969 12.0051 0.960984 11.7944 0.585911 11.4193C0.210838 11.0442 0.000125885 10.5355 0.000125885 10.0051C0.000125885 9.47464 0.210838 8.96593 0.585911 8.59086C0.960984 8.21578 1.46969 8.00507 2.00013 8.00507Z" fill="#333333"/>
</svg>
