<svg width="25" height="20" viewBox="0 0 25 20" fill="none" xmlns="http://www.w3.org/2000/svg">
<path d="M22.9999 8.00507H7.82787L12.4139 3.41907C12.5996 3.23338 12.7469 3.01293 12.8474 2.77032C12.9478 2.52771 12.9996 2.26767 12.9996 2.00507C12.9996 1.74246 12.9478 1.48243 12.8474 1.23982C12.7469 0.997203 12.5996 0.776757 12.4139 0.591068C12.2282 0.405379 12.0077 0.258083 11.7651 0.157589C11.5225 0.0570947 11.2625 0.00537109 10.9999 0.00537109C10.7373 0.0053711 10.4772 0.0570947 10.2346 0.157589C9.99201 0.258083 9.77156 0.40538 9.58587 0.591069L0.171875 10.0051L9.58587 19.4191C9.77118 19.6054 9.9915 19.7533 10.2342 19.8543C10.4768 19.9552 10.7371 20.0071 10.9999 20.0071C11.2627 20.0071 11.5229 19.9552 11.7656 19.8543C12.0082 19.7533 12.2286 19.6054 12.4139 19.4191C12.7888 19.044 12.9994 18.5354 12.9994 18.0051C12.9994 17.4747 12.7888 16.9661 12.4139 16.5911L7.82787 12.0051H22.9999C23.5303 12.0051 24.039 11.7944 24.4141 11.4193C24.7892 11.0442 24.9999 10.5355 24.9999 10.0051C24.9999 9.47464 24.7892 8.96593 24.4141 8.59086C24.039 8.21578 23.5303 8.00507 22.9999 8.00507Z" fill="#333333"/>
</svg>
