<svg width="62" height="56" viewBox="0 0 62 56" fill="none" xmlns="http://www.w3.org/2000/svg">
<path d="M33.5339 3.09021V7.87597H37.3051C38.469 7.87597 39.6138 8.18226 40.6245 8.76038L45.5634 11.5782C45.7115 11.6625 45.8697 11.7046 46.0382 11.7046H54.5913C55.3529 11.7046 56.0832 12.0071 56.6217 12.5456C57.1602 13.0841 57.4628 13.8145 57.4628 14.576C57.4628 15.3376 57.1602 16.068 56.6217 16.6065C56.0832 17.145 55.3529 17.4475 54.5913 17.4475H52.9565L61.0387 35.4114C61.2775 35.9428 61.349 36.5343 61.2437 37.1074C61.1384 37.6805 60.8613 38.2079 60.4491 38.6197L58.4199 36.5906L60.4452 38.6236L60.4414 38.6312L60.4338 38.6389L60.4108 38.6618L60.3878 38.681L60.3495 38.7193L60.1772 38.8724C59.3681 39.5488 58.4927 40.1231 57.5508 40.5953C55.7629 41.4912 53.1747 42.3335 49.8055 42.3335C47.1237 42.3648 44.4715 41.7696 42.0603 40.5953C41.1203 40.1259 40.2387 39.5477 39.4338 38.8724L39.2615 38.7193L39.2003 38.6618L39.1773 38.6389L39.162 38.6236V38.6197C38.7498 38.2079 38.4727 37.6805 38.3674 37.1074C38.262 36.5343 38.3335 35.9428 38.5724 35.4114L46.6584 17.4475H46.0382C44.8705 17.4475 43.7257 17.145 42.7149 16.5631L37.776 13.7452C37.6315 13.6625 37.4678 13.619 37.3013 13.6189H33.5339V49.9907H43.1055C43.867 49.9907 44.5974 50.2932 45.1359 50.8317C45.6744 51.3702 45.9769 52.1006 45.9769 52.8622C45.9769 53.6237 45.6744 54.3541 45.1359 54.8926C44.5974 55.4311 43.867 55.7336 43.1055 55.7336H18.2195C17.4579 55.7336 16.7276 55.4311 16.1891 54.8926C15.6506 54.3541 15.348 53.6237 15.348 52.8622C15.348 52.1006 15.6506 51.3702 16.1891 50.8317C16.7276 50.2932 17.4579 49.9907 18.2195 49.9907H27.791V13.6189H24.0237C23.8571 13.619 23.6935 13.6625 23.5489 13.7452L18.6138 16.5669C17.5993 17.1412 16.4545 17.4475 15.2868 17.4475H14.6665L22.7526 35.4114C22.9914 35.9428 23.0629 36.5343 22.9576 37.1074C22.8523 37.6805 22.5751 38.2079 22.163 38.6197L20.1338 36.5906L22.1591 38.6236L22.1553 38.6312L22.1476 38.6389L22.1247 38.6618L22.0634 38.7193L21.8911 38.8724C21.082 39.5488 20.2065 40.1231 19.2647 40.5953C17.4767 41.4912 14.8886 42.3335 11.5194 42.3335C8.83755 42.3648 6.1854 41.7696 3.77413 40.5953C2.83414 40.1259 1.95261 39.5477 1.1477 38.8724L0.975417 38.7193L0.914159 38.6618L0.891187 38.6389L0.875873 38.6236V38.6197C0.463691 38.2079 0.186541 37.6805 0.08123 37.1074C-0.0240812 36.5343 0.04743 35.9428 0.286266 35.4114L8.37229 17.4475H6.73365C5.97209 17.4475 5.24172 17.145 4.70322 16.6065C4.16472 16.068 3.86219 15.3376 3.86219 14.576C3.86219 13.8145 4.16472 13.0841 4.70322 12.5456C5.24172 12.0071 5.97209 11.7046 6.73365 11.7046H15.2868C15.4546 11.7052 15.6197 11.6616 15.7653 11.5782L20.6966 8.75655C21.7112 8.18226 22.8559 7.87597 24.0237 7.87597H27.791V3.09021C27.791 2.32865 28.0935 1.59828 28.632 1.05978C29.1705 0.521278 29.9009 0.21875 30.6625 0.21875C31.424 0.21875 32.1544 0.521278 32.6929 1.05978C33.2314 1.59828 33.5339 2.32865 33.5339 3.09021ZM44.8092 35.5454C45.9003 36.0622 47.5581 36.5906 49.8055 36.5906C52.0529 36.5906 53.7107 36.0622 54.8019 35.5454L49.8055 24.4424L44.8092 35.5454ZM6.52308 35.5454C7.61423 36.0622 9.27202 36.5906 11.5194 36.5906C13.7668 36.5906 15.4246 36.0622 16.5158 35.5454L11.5194 24.4424L6.52308 35.5454Z" fill="#225E8A"/>
</svg>
