<svg width="52" height="52" viewBox="0 0 52 52" fill="none" xmlns="http://www.w3.org/2000/svg">
<path d="M25.6628 51.6071C22.1319 51.6071 18.8138 50.9367 15.7084 49.5958C12.6029 48.2549 9.90163 46.4368 7.60447 44.1413C5.3073 41.8458 3.48913 39.1445 2.14997 36.0374C0.810806 32.9303 0.140373 29.6121 0.138672 26.083C0.138672 22.8925 0.755504 19.7658 1.98917 16.7029C3.22283 13.64 4.94571 10.9064 7.15779 8.50202C9.36988 6.09765 12.0286 4.16208 15.1341 2.69529C18.2395 1.22851 21.6427 0.495117 25.3437 0.495117C26.237 0.495117 27.1517 0.537657 28.0875 0.622738C29.0234 0.707818 29.9806 0.856708 30.959 1.06941C30.5761 2.98372 30.7038 4.79167 31.3419 6.49328C31.98 8.19488 32.9371 9.60892 34.2133 10.7354C35.4895 11.8618 37.0108 12.6386 38.777 13.0657C40.5433 13.4928 42.3615 13.3865 44.2315 12.7467C43.1255 15.2565 43.2854 17.6601 44.7114 19.9572C46.1373 22.2544 48.2533 23.4455 51.0592 23.5306C51.1018 23.9985 51.1341 24.4342 51.1562 24.8374C51.1783 25.2407 51.1885 25.6772 51.1868 26.1468C51.1868 29.6351 50.5164 32.9209 49.1755 36.0042C47.8347 39.0875 46.0165 41.7888 43.721 44.1081C41.4256 46.4274 38.7243 48.2566 35.6171 49.5958C32.51 50.935 29.1919 51.6054 25.6628 51.6071ZM21.8341 20.9782C22.8976 20.9782 23.802 20.6064 24.5473 19.8628C25.2927 19.1192 25.6645 18.2148 25.6628 17.1496C25.6611 16.0844 25.2892 15.1808 24.5473 14.4389C23.8054 13.697 22.901 13.3244 21.8341 13.321C20.7672 13.3176 19.8637 13.6902 19.1235 14.4389C18.3833 15.1876 18.0106 16.0912 18.0055 17.1496C18.0004 18.208 18.3731 19.1124 19.1235 19.8628C19.8739 20.6132 20.7774 20.985 21.8341 20.9782ZM16.7293 33.7402C17.7928 33.7402 18.6972 33.3684 19.4425 32.6248C20.1878 31.8812 20.5596 30.9768 20.5579 29.9116C20.5562 28.8464 20.1844 27.9429 19.4425 27.201C18.7006 26.4591 17.7962 26.0864 16.7293 26.083C15.6624 26.0796 14.7589 26.4523 14.0187 27.201C13.2785 27.9497 12.9058 28.8532 12.9007 29.9116C12.8956 30.97 13.2683 31.8744 14.0187 32.6248C14.7691 33.3752 15.6726 33.747 16.7293 33.7402ZM33.32 36.2926C34.0432 36.2926 34.6498 36.0476 35.1398 35.5575C35.6299 35.0675 35.8741 34.4617 35.8724 33.7402C35.8707 33.0187 35.6257 32.413 35.1373 31.9229C34.6489 31.4329 34.0432 31.1878 33.32 31.1878C32.5968 31.1878 31.991 31.4329 31.5027 31.9229C31.0143 32.413 30.7693 33.0187 30.7676 33.7402C30.7659 34.4617 31.0109 35.0683 31.5027 35.5601C31.9944 36.0519 32.6002 36.296 33.32 36.2926ZM25.6628 46.5023C30.8526 46.5023 35.458 44.7156 39.4789 41.1422C43.4998 37.5688 45.7009 33.017 46.082 27.4868C43.955 26.5509 42.2849 25.2747 41.0716 23.6582C39.8584 22.0417 39.0399 20.2337 38.6162 18.2344C35.3406 17.7664 32.533 16.3626 30.1933 14.0229C27.8536 11.6832 26.4072 8.87552 25.8542 5.59993C22.451 5.51485 19.463 6.13168 16.8901 7.45043C14.3173 8.76917 12.1682 10.4606 10.4427 12.5246C8.71732 14.5887 7.41984 16.8322 6.55032 19.2553C5.6808 21.6784 5.24519 23.9543 5.24349 26.083C5.24349 31.7408 7.23266 36.5589 11.211 40.5373C15.1894 44.5156 20.0066 46.504 25.6628 46.5023Z" fill="#225E8A"/>
</svg>
