<svg width="42" height="47" viewBox="0 0 42 47" fill="none" xmlns="http://www.w3.org/2000/svg">
<path d="M41.0822 35.9188V10.3947C41.0822 4.86107 31.7327 0.185059 20.6629 0.185059C9.59312 0.185059 0.243652 4.86107 0.243652 10.3947V35.9188C0.243652 41.4524 9.59312 46.1284 20.6629 46.1284C31.7327 46.1284 41.0822 41.4524 41.0822 35.9188ZM20.6629 5.28987C30.0839 5.28987 35.8012 9.13635 35.9774 10.3794C35.8012 11.653 30.0839 15.4995 20.6629 15.4995C11.242 15.4995 5.52458 11.653 5.34847 10.41C5.52458 9.13635 11.242 5.28987 20.6629 5.28987ZM5.34847 17.0488C9.12348 19.2107 14.6316 20.6043 20.6629 20.6043C26.6943 20.6043 32.2024 19.2107 35.9774 17.0488V23.1414C35.8012 24.4151 30.0839 28.2615 20.6629 28.2615C11.242 28.2615 5.52458 24.4151 5.34847 23.1567V17.0488ZM5.34847 35.9188V29.8109C9.12348 31.9727 14.6316 33.3664 20.6629 33.3664C26.6943 33.3664 32.2024 31.9727 35.9774 29.8109V35.9035C35.8012 37.1771 30.0839 41.0236 20.6629 41.0236C11.242 41.0236 5.52458 37.1771 5.34847 35.9188Z" fill="#225E8A"/>
</svg>
