<svg width="15" height="30" viewBox="0 0 15 30" fill="none" xmlns="http://www.w3.org/2000/svg">
<path d="M14.5837 0.833496V3.66683H13.167V23.5002C13.167 25.0031 12.57 26.4444 11.5073 27.5071C10.4446 28.5698 9.00322 29.1668 7.50033 29.1668C5.99743 29.1668 4.55609 28.5698 3.49339 27.5071C2.43068 26.4444 1.83366 25.0031 1.83366 23.5002V3.66683H0.416992V0.833496H14.5837ZM8.91699 19.2502C8.54127 19.2502 8.18093 19.3994 7.91526 19.6651C7.64958 19.9308 7.50033 20.2911 7.50033 20.6668C7.50033 21.0426 7.64958 21.4029 7.91526 21.6686C8.18093 21.9342 8.54127 22.0835 8.91699 22.0835C9.29272 22.0835 9.65305 21.9342 9.91873 21.6686C10.1844 21.4029 10.3337 21.0426 10.3337 20.6668C10.3337 20.2911 10.1844 19.9308 9.91873 19.6651C9.65305 19.3994 9.29272 19.2502 8.91699 19.2502ZM6.08366 15.0002C5.70794 15.0002 5.3476 15.1494 5.08192 15.4151C4.81625 15.6808 4.66699 16.0411 4.66699 16.4168C4.66699 16.7926 4.81625 17.1529 5.08192 17.4186C5.3476 17.6842 5.70794 17.8335 6.08366 17.8335C6.45938 17.8335 6.81972 17.6842 7.08539 17.4186C7.35107 17.1529 7.50033 16.7926 7.50033 16.4168C7.50033 16.0411 7.35107 15.6808 7.08539 15.4151C6.81972 15.1494 6.45938 15.0002 6.08366 15.0002ZM10.3337 3.66683H4.66699V9.3335H10.3337V3.66683Z" fill="#225E8A"/>
</svg>
