<svg width="52" height="54" viewBox="0 0 52 54" fill="none" xmlns="http://www.w3.org/2000/svg">
<path d="M27.1765 52.1982C27.1985 52.2016 27.2126 52.2171 27.2195 52.2441L27.2634 53.334L27.2527 53.3779L27.2224 53.4189L26.9568 53.6074L26.9265 53.6172L26.8884 53.6074L26.6228 53.4189L26.5974 53.3857L26.5847 53.334L26.6277 52.2422L26.6384 52.2158C26.652 52.1993 26.6722 52.1948 26.699 52.2031L26.8806 52.293L26.9158 52.3027L26.9675 52.293L27.1482 52.2031L27.1765 52.1982ZM26.0281 51.915L26.4978 52.1504L26.5232 52.1758L26.531 52.2061L26.4871 53.3037L26.4773 53.332L26.4519 53.3525L25.9382 53.5898L25.9001 53.5947C25.873 53.5845 25.8589 53.5638 25.8572 53.5332L25.9441 51.9658L25.9587 51.9307C25.966 51.9199 25.9773 51.9121 25.99 51.9092C26.0028 51.9063 26.0168 51.9082 26.0281 51.915ZM27.8533 51.9102C27.8785 51.917 27.8956 51.9355 27.9041 51.9658L27.991 53.5332L27.9802 53.5693C27.9633 53.5911 27.9389 53.5981 27.907 53.5898L27.3933 53.3525L27.3728 53.334L27.3601 53.3037L27.3142 52.2061L27.322 52.1777L27.3474 52.1523L27.8201 51.915L27.8533 51.9102ZM19.3328 0.492188C20.0978 0.492283 20.8531 0.664795 21.5427 0.996094C22.2324 1.32745 22.8389 1.80995 23.3171 2.40723L26.8904 6.87402H46.0818C47.4357 6.87402 48.7348 7.4118 49.6921 8.36914C50.6492 9.32644 51.1873 10.6248 51.1873 11.9785V41.3311C51.1873 42.6847 50.6492 43.9831 49.6921 44.9404C48.7348 45.8978 47.4357 46.4355 46.0818 46.4355H5.2439C3.89002 46.4355 2.59088 45.8978 1.63354 44.9404C0.67643 43.9831 0.138428 42.6848 0.138428 41.3311V5.59766C0.138428 4.24395 0.676435 2.94558 1.63354 1.98828C2.59088 1.03094 3.89002 0.492188 5.2439 0.492188H19.3328ZM5.2439 41.3311H46.0818V11.9785H26.8875C26.1225 11.9784 25.367 11.8059 24.6775 11.4746C23.9881 11.1433 23.3821 10.6614 22.9041 10.0645L19.3328 5.59766H5.2439V41.3311ZM25.6628 18.3594C26.7516 18.3597 27.8116 18.7088 28.6882 19.3545C29.5648 20.0001 30.2126 20.9087 30.5359 21.9482C30.8592 22.9879 30.841 24.1039 30.4851 25.1328C30.1292 26.1617 29.4539 27.0503 28.5574 27.668L28.2156 27.8848V33.6738C28.2149 34.3244 27.9649 34.9498 27.5183 35.4229C27.0717 35.8959 26.4617 36.1806 25.8123 36.2188C25.1628 36.2569 24.523 36.0464 24.0242 35.6289C23.5253 35.2114 23.2055 34.6186 23.1287 33.9727L23.1101 33.6738V27.8848C22.1372 27.3229 21.377 26.4559 20.947 25.418C20.5171 24.3799 20.4415 23.2289 20.7322 22.1436C21.023 21.0581 21.6639 20.0981 22.5554 19.4141C23.4468 18.7301 24.5393 18.3594 25.6628 18.3594Z" fill="#225E8A"/>
</svg>
