<svg width="44" height="55" viewBox="0 0 44 55" fill="none" xmlns="http://www.w3.org/2000/svg">
<path d="M36.9768 0.580566C38.5895 0.580566 40.1363 1.22146 41.2766 2.36182C42.4168 3.50206 43.0577 5.04811 43.0579 6.66064V48.7759C43.0579 50.3886 42.417 51.9353 41.2766 53.0757C40.1363 54.2159 38.5894 54.8569 36.9768 54.8569H6.3479C4.73548 54.8568 3.18929 54.2158 2.04907 53.0757C0.908717 51.9353 0.267826 50.3886 0.267822 48.7759V6.66064C0.267951 5.04811 0.908828 3.50206 2.04907 2.36182C3.18932 1.22157 4.73536 0.580695 6.3479 0.580566H36.9768ZM6.3479 5.08447C5.92997 5.0846 5.52918 5.25085 5.23364 5.54639C4.93811 5.84192 4.77186 6.24271 4.77173 6.66064V48.7759L4.77954 48.9321C4.81545 49.2928 4.97519 49.6316 5.23364 49.8901C5.52918 50.1857 5.92997 50.3519 6.3479 50.3521H36.9768C37.3949 50.3521 37.7964 50.1858 38.092 49.8901C38.3875 49.5945 38.554 49.1939 38.554 48.7759V6.66064C38.5538 6.24271 38.3876 5.84192 38.092 5.54639C37.7964 5.25074 37.3949 5.08447 36.9768 5.08447H6.3479ZM18.0647 40.7925C19.2002 40.9079 20.0861 41.8668 20.0862 43.0327C20.0862 44.1987 19.2003 45.1585 18.0647 45.2739L17.8342 45.2847H10.177C8.93319 45.2847 7.92505 44.2765 7.92505 43.0327C7.92517 41.789 8.93326 40.7808 10.177 40.7808H17.8342L18.0647 40.7925ZM33.3792 33.1353C34.5146 33.2507 35.4005 34.2096 35.4006 35.3755C35.4006 36.5415 34.5147 37.5013 33.3792 37.6167L33.1487 37.6274H10.177C8.93319 37.6274 7.92505 36.6193 7.92505 35.3755C7.92517 34.1318 8.93327 33.1235 10.177 33.1235H33.1487L33.3792 33.1353ZM33.3792 25.478C34.5146 25.5934 35.4005 26.5524 35.4006 27.7183C35.4006 28.8843 34.5147 29.8441 33.3792 29.9595L33.1487 29.9702H10.177C8.93319 29.9702 7.92505 28.9621 7.92505 27.7183C7.92518 26.4746 8.93327 25.4663 10.177 25.4663H33.1487L33.3792 25.478ZM33.3137 11.1138C35.0095 11.1996 36.3576 12.6018 36.3577 14.3188C36.3574 16.0911 34.921 17.5278 33.1487 17.5278C31.4318 17.5278 30.0297 16.1794 29.9436 14.4839L29.9397 14.3188L29.9436 14.1538C30.0296 12.4582 31.4317 11.1099 33.1487 11.1099L33.3137 11.1138ZM17.8342 12.0659C19.0779 12.0659 20.0859 13.0743 20.0862 14.3179C20.0862 15.5617 19.078 16.5708 17.8342 16.5708H10.177C8.93319 16.5708 7.92505 15.5617 7.92505 14.3179C7.92531 13.0743 8.93335 12.0659 10.177 12.0659H17.8342ZM33.1487 13.0239C32.4336 13.024 31.8538 13.6038 31.8538 14.3188L31.8606 14.4517C31.9273 15.1042 32.4785 15.6137 33.1487 15.6138C33.8189 15.6138 34.3701 15.1043 34.4368 14.4517L34.4436 14.3188L34.4368 14.187C34.3751 13.5775 33.8909 13.0928 33.2815 13.0308L33.1487 13.0239ZM33.1487 13.3618C33.6773 13.3618 34.1057 13.7902 34.1057 14.3188C34.1055 14.8473 33.6772 15.2759 33.1487 15.2759C32.6202 15.2758 32.1918 14.8473 32.1917 14.3188C32.1917 13.7903 32.6201 13.3619 33.1487 13.3618Z" fill="#225E8A"/>
</svg>
