<svg width="87" height="88" viewBox="0 0 87 88" fill="none" xmlns="http://www.w3.org/2000/svg">
<path d="M68.4988 47.5038C68.4988 49.2028 68.1258 50.8352 67.4106 52.2964C67.293 52.5345 67.2318 52.7965 67.2318 53.0621C67.2318 53.3276 67.293 53.5897 67.4106 53.8278C68.0916 55.2547 68.4988 56.8529 68.4988 58.5519C68.4988 64.5335 63.6702 69.3621 57.6886 69.3621H28.8614C22.8797 69.3621 18.0512 64.5335 18.0512 58.5519C18.0512 56.8529 18.4584 55.2547 19.1394 53.826C19.2567 53.5881 19.3177 53.3264 19.3177 53.0612C19.3177 52.7959 19.2567 52.5342 19.1394 52.2964C18.4282 50.7985 18.0566 49.162 18.0512 47.5038C18.0497 45.3331 18.6849 43.2095 19.8781 41.3961L19.8871 41.3853C21.0406 39.6156 21.6541 37.5485 21.6528 35.436V35.4C21.6528 33.9445 21.9396 32.5032 22.4967 31.1585C23.0539 29.8138 23.8706 28.592 24.9001 27.563C25.9296 26.534 27.1517 25.718 28.4967 25.1615C29.8416 24.6049 31.2831 24.3188 32.7386 24.3196C33.3512 24.3196 33.9278 24.0133 34.2683 23.5376C35.2953 22.108 36.6477 20.9431 38.2138 20.1392C39.7798 19.3354 41.5146 18.9156 43.275 18.9145C45.0356 18.9153 46.7708 19.335 48.3372 20.1388C49.9036 20.9427 51.2563 22.1077 52.2835 23.5376C52.624 24.0475 53.2023 24.3196 53.8149 24.3196C56.7536 24.3196 59.572 25.487 61.65 27.5649C63.728 29.6429 64.8954 32.4613 64.8954 35.4V35.436C64.8954 37.544 65.508 39.616 66.6628 41.3853L66.67 41.3943C67.0412 41.9348 67.3439 42.5113 67.6141 43.1185H67.5961C68.1763 44.4608 68.4988 45.9346 68.4988 47.5038Z" fill="#212121"/>
<path d="M64.8954 47.5615C64.8954 48.2713 64.7556 48.9741 64.4839 49.6299C64.2123 50.2857 63.8142 50.8816 63.3123 51.3835C62.8103 51.8854 62.2145 52.2835 61.5587 52.5551C60.9029 52.8268 60.2001 52.9666 59.4903 52.9666C58.7805 52.9666 58.0776 52.8268 57.4218 52.5551C56.7661 52.2835 56.1702 51.8854 55.6683 51.3835C55.1664 50.8816 54.7682 50.2857 54.4966 49.6299C54.225 48.9741 54.0852 48.2713 54.0852 47.5615C54.0852 46.128 54.6546 44.7532 55.6683 43.7395C56.6819 42.7258 58.0568 42.1564 59.4903 42.1564C60.9238 42.1564 62.2986 42.7258 63.3123 43.7395C64.3259 44.7532 64.8954 46.128 64.8954 47.5615ZM33.0053 47.7417C33.0053 49.1752 32.4358 50.55 31.4222 51.5636C30.4085 52.5773 29.0337 53.1468 27.6002 53.1468C26.1667 53.1468 24.7919 52.5773 23.7782 51.5636C22.7646 50.55 22.1951 49.1752 22.1951 47.7417C22.1951 46.3081 22.7646 44.9333 23.7782 43.9197C24.7919 42.906 26.1667 42.3366 27.6002 42.3366C29.0337 42.3366 30.4085 42.906 31.4222 43.9197C32.4358 44.9333 33.0053 46.3081 33.0053 47.7417Z" fill="#F4C6AD"/>
<path d="M26.1859 43.3203H26.2273L26.1931 42.4284L26.1588 41.4015C26.2273 38.2125 28.0866 36.9801 28.8794 36.5675C28.9346 36.5495 28.9923 36.5267 29.0524 36.4991C29.1136 36.4726 29.1713 36.4498 29.2253 36.4306C31.0398 35.613 32.4701 34.1285 33.2197 32.2849L33.4953 31.6327C33.5555 31.4847 33.6545 31.3558 33.7819 31.2595C33.9093 31.1632 34.0604 31.1032 34.2191 31.0856C34.3778 31.0681 34.5383 31.0938 34.6837 31.1599C34.829 31.2261 34.9538 31.3303 35.0448 31.4615C36.2395 33.1986 37.8396 34.6184 39.7066 35.5979C41.5736 36.5774 43.6512 37.0871 45.7595 37.0828H56.5751C57.1805 37.0828 60.211 37.3765 60.3911 41.5582L59.9929 51.3775C59.5786 60.7914 52.2276 67.1135 43.2534 67.1135C34.2809 67.1135 26.9282 60.7914 26.5138 51.3775L26.1859 43.3203Z" fill="#FFD7C2"/>
<path d="M41.9904 46.8895L40.2067 52.6008C40.1221 52.8733 40.103 53.1619 40.1511 53.4431C40.1992 53.7244 40.3131 53.9902 40.4835 54.2191C40.6539 54.4479 40.8759 54.6333 41.1315 54.76C41.3871 54.8868 41.669 54.9514 41.9543 54.9485H44.5956C45.8352 54.9485 46.709 53.7557 46.3433 52.599L44.5596 46.8876C44.1758 45.6247 42.3921 45.6247 41.9904 46.8876" fill="#E5AF93"/>
<path d="M43.275 57.4618C41.6578 57.4726 40.0617 57.0944 38.6212 56.3592C38.1618 56.125 37.6663 56.6439 37.9564 57.0618C38.5386 57.9385 39.3293 58.657 40.2575 59.1529C41.1858 59.6488 42.2226 59.9065 43.275 59.9031C44.3274 59.9065 45.3642 59.6488 46.2924 59.1529C47.2207 58.657 48.0113 57.9385 48.5936 57.0618C48.8819 56.6276 48.3882 56.125 47.9288 56.3592C46.4883 57.0944 44.8922 57.4726 43.275 57.4618Z" fill="#990838"/>
<path d="M34.2665 43.0572C36.0682 43.0572 37.9149 44.4986 38.8158 45.94C37.7366 46.2715 36.7348 46.5273 35.7565 46.7777C34.6088 47.0696 33.4953 47.3543 32.3297 47.7417L30.528 46.4805C29.8073 45.94 29.6271 45.0391 30.7081 44.3184C31.7891 43.4176 33.0053 43.0572 34.2665 43.0572ZM52.6438 43.0572C50.8421 43.0572 48.9954 44.4986 48.0945 45.94C49.1737 46.2715 50.1755 46.5273 51.1538 46.7777C52.2997 47.0696 53.4149 47.3543 54.5806 47.7417L56.3823 46.4805C57.103 45.94 57.2832 45.0391 56.2022 44.3184C55.1212 43.4176 53.905 43.0572 52.6438 43.0572Z" fill="black"/>
<path d="M30.6901 46.6012C30.9505 45.5671 31.555 44.6523 32.4043 44.0074C33.2536 43.3624 34.2971 43.0257 35.3632 43.0525C36.4292 43.0794 37.4544 43.4682 38.2702 44.155C39.086 44.8419 39.6437 45.7859 39.8517 46.8318C39.8722 46.9436 39.8677 47.0585 39.8386 47.1683C39.8094 47.2781 39.7564 47.3802 39.6832 47.4671C39.61 47.554 39.5186 47.6237 39.4153 47.6712C39.3121 47.7186 39.1996 47.7427 39.086 47.7417H31.5964C31.4558 47.7432 31.3168 47.7126 31.1899 47.6522C31.0631 47.5918 30.9516 47.5032 30.8642 47.3931C30.7768 47.2831 30.7157 47.1546 30.6855 47.0173C30.6553 46.8801 30.6569 46.7377 30.6901 46.6012ZM55.8599 46.6012C55.5997 45.5902 55.0117 44.6939 54.1879 44.0527C53.364 43.4114 52.3509 43.0613 51.307 43.0572C50.2202 43.0546 49.1664 43.4299 48.3259 44.1188C47.4854 44.8078 46.9107 45.7675 46.7 46.8336C46.6799 46.9451 46.6846 47.0596 46.7138 47.1691C46.7429 47.2786 46.7959 47.3803 46.8688 47.467C46.9417 47.5537 47.0329 47.6232 47.1357 47.6707C47.2386 47.7182 47.3506 47.7424 47.4639 47.7417H54.9536C55.0941 47.7432 55.2331 47.7126 55.36 47.6522C55.4869 47.5918 55.5983 47.5032 55.6857 47.3931C55.7732 47.2831 55.8343 47.1546 55.8645 47.0173C55.8947 46.8801 55.8931 46.7377 55.8599 46.6012Z" fill="white"/>
<path d="M32.9314 46.9435C32.9315 46.5158 33.023 46.0931 33.1999 45.7037C33.3769 45.3143 33.6351 44.9673 33.9572 44.6859C34.2793 44.4045 34.6579 44.1954 35.0675 44.0724C35.4771 43.9494 35.9083 43.9155 36.3322 43.973C36.756 44.0304 37.1626 44.1779 37.5247 44.4055C37.8868 44.6331 38.1961 44.9355 38.4317 45.2925C38.6672 45.6494 38.8237 46.0527 38.8906 46.4751C38.9575 46.8975 38.9332 47.3294 38.8194 47.7417H33.0377C32.9667 47.4815 32.9322 47.2132 32.9314 46.9435ZM53.6185 46.9435C53.6185 45.2751 52.2673 43.9437 50.6133 43.9437C50.2193 43.9415 49.8287 44.0177 49.4644 44.1678C49.1001 44.3179 48.7692 44.539 48.4911 44.8181C48.213 45.0973 47.9931 45.4289 47.8443 45.7938C47.6955 46.1587 47.6207 46.5495 47.6243 46.9435C47.6243 47.227 47.6603 47.493 47.7324 47.7417H53.5122C53.5843 47.475 53.6203 47.2264 53.6203 46.9435" fill="#7D4533"/>
<path d="M35.9367 45.2391C36.231 45.2383 36.5206 45.3137 36.7772 45.458C37.0338 45.6023 37.2488 45.8105 37.4011 46.0624C37.5535 46.3143 37.638 46.6013 37.6466 46.8956C37.6552 47.1898 37.5875 47.4813 37.4501 47.7417H34.425C34.2876 47.4813 34.2199 47.1898 34.2285 46.8956C34.2371 46.6013 34.3217 46.3143 34.474 46.0624C34.6263 45.8105 34.8413 45.6023 35.0979 45.458C35.3545 45.3137 35.6441 45.2383 35.9385 45.2391M50.5953 45.2391C50.3009 45.2383 50.0113 45.3137 49.7547 45.458C49.4981 45.6023 49.2832 45.8105 49.1308 46.0624C48.9785 46.3143 48.8939 46.6013 48.8853 46.8956C48.8768 47.1898 48.9445 47.4813 49.0819 47.7417H52.1069C52.2443 47.4813 52.312 47.1898 52.3034 46.8956C52.2948 46.6013 52.2103 46.3143 52.0579 46.0624C51.9056 45.8105 51.6907 45.6023 51.4341 45.458C51.1774 45.3137 50.8897 45.2383 50.5953 45.2391Z" fill="black"/>
<path d="M35.4376 45.7958C35.4376 46.0949 35.1998 46.3363 34.9061 46.3363C34.764 46.3344 34.6283 46.2766 34.5285 46.1755C34.4287 46.0743 34.3728 45.9379 34.3728 45.7958C34.3728 45.4967 34.6106 45.2553 34.9061 45.2553C35.2016 45.2553 35.4394 45.4967 35.4394 45.7958M50.2043 45.7958C50.2043 46.0949 49.9647 46.3363 49.6692 46.3363C49.5271 46.3344 49.3915 46.2766 49.2917 46.1755C49.1918 46.0743 49.1359 45.9379 49.1359 45.7958C49.1359 45.4967 49.3755 45.2553 49.6692 45.2553C49.9647 45.2553 50.2043 45.4967 50.2043 45.7958Z" fill="white"/>
<path d="M31.8612 41.5888L31.8468 41.5979C31.6425 41.7104 31.4026 41.7393 31.1775 41.6785C30.9524 41.6178 30.7596 41.4721 30.6396 41.2721C30.5197 41.0722 30.482 40.8335 30.5344 40.6063C30.5868 40.379 30.7253 40.181 30.9207 40.0538L30.9261 40.0484L30.9369 40.043L30.9676 40.025C31.1293 39.9305 31.2959 39.8445 31.4666 39.7673C31.7981 39.6088 32.2684 39.407 32.8449 39.2232C33.9854 38.8593 35.5835 38.553 37.3059 38.8575C37.4225 38.8781 37.5338 38.9214 37.6336 38.985C37.7334 39.0486 37.8196 39.1313 37.8875 39.2282C37.9553 39.3252 38.0034 39.4345 38.029 39.5501C38.0546 39.6656 38.0571 39.785 38.0365 39.9016C38.0159 40.0181 37.9726 40.1294 37.909 40.2292C37.8454 40.329 37.7628 40.4152 37.6658 40.4831C37.5689 40.5509 37.4595 40.599 37.344 40.6246C37.2284 40.6502 37.109 40.6527 36.9924 40.6321C35.6538 40.3943 34.3674 40.6285 33.3927 40.9402C32.8633 41.1088 32.3506 41.3259 31.8612 41.5888ZM55.6292 40.052L55.6256 40.0484L55.6166 40.043L55.5842 40.025L55.4761 39.9637C54.9106 39.6651 54.3197 39.4173 53.7104 39.2232C52.5663 38.8593 50.97 38.553 49.2458 38.8575C49.0105 38.899 48.8013 39.0324 48.6643 39.2282C48.5273 39.424 48.4737 39.6662 48.5152 39.9016C48.5568 40.1369 48.6901 40.3461 48.886 40.4831C49.0818 40.6201 49.324 40.6737 49.5593 40.6321C50.898 40.3943 52.1844 40.6285 53.1609 40.9402C53.6897 41.1089 54.2017 41.326 54.6905 41.5888L54.705 41.5979C54.91 41.7207 55.1553 41.757 55.3871 41.6989C55.6189 41.6408 55.8181 41.493 55.9409 41.288C56.0637 41.083 56.1001 40.8376 56.042 40.6058C55.9838 40.374 55.8342 40.1748 55.6292 40.052Z" fill="#212121"/>
</svg>
