<svg width="47" height="47" viewBox="0 0 47 47" fill="none" xmlns="http://www.w3.org/2000/svg">
<path d="M3.99967 14.0002C3.99967 8.47731 8.47683 4.00016 13.9997 4.00016H33.9997C39.5225 4.00016 43.9997 8.47731 43.9997 14.0002V34.0002C43.9997 39.523 39.5225 44.0002 33.9997 44.0002H13.9997C8.47683 44.0002 3.99967 39.523 3.99967 34.0002V14.0002Z" fill="white"/>
<path d="M46.3934 11.0037C46.3721 10.0206 46.2933 9.03965 46.1574 8.06579C45.9931 7.19969 45.7133 6.35955 45.3255 5.56787C44.4777 3.89307 43.1177 2.53234 41.4434 1.6835C40.6567 1.29786 39.822 1.01888 38.9616 0.853913C37.9802 0.715572 36.9915 0.635224 36.0007 0.613288C35.5813 0.597246 35.0382 0.590371 34.7861 0.590371L12.2178 0.583496C11.9657 0.583496 11.4226 0.590371 11.0032 0.606413C10.0201 0.627726 9.03916 0.706541 8.0653 0.842454C7.1992 1.00677 6.35906 1.28656 5.56738 1.67433C3.89258 2.52218 2.53185 3.88211 1.68301 5.55641C1.29737 6.34315 1.01839 7.17779 0.853425 8.03829C0.714317 9.0196 0.633204 10.0083 0.610508 10.9991C0.596758 11.4185 0.587591 11.9616 0.587591 12.2137L0.583008 34.782C0.583008 35.0341 0.589883 35.5772 0.605924 35.9966C0.627238 36.9797 0.706053 37.9607 0.841966 38.9345C1.00628 39.8006 1.28607 40.6408 1.67384 41.4325C2.52169 43.1073 3.88162 44.468 5.55592 45.3168C6.34266 45.7025 7.17731 45.9815 8.0378 46.1464C9.01916 46.2848 10.0078 46.3651 10.9986 46.387C11.418 46.4031 11.9611 46.41 12.2132 46.41L34.7816 46.4145C35.0336 46.4145 35.5768 46.4077 35.9961 46.3916C36.9792 46.3703 37.9602 46.2915 38.9341 46.1556C39.8002 45.9913 40.6403 45.7115 41.432 45.3237C43.1076 44.4762 44.4692 43.1163 45.3186 41.4416C45.7043 40.6549 45.9833 39.8202 46.1482 38.9597C46.2873 37.9784 46.3684 36.9898 46.3911 35.9989C46.4049 35.5795 46.4141 35.0364 46.4141 34.7843L46.4163 12.2183C46.4163 11.9662 46.4095 11.4231 46.3934 11.0037ZM23.997 39.4433H23.9901C21.2619 39.4453 18.577 38.7613 16.1824 37.4541L7.51988 39.7252L9.83905 31.262C8.04342 28.1461 7.32594 24.5248 7.79786 20.9596C8.26977 17.3944 9.90472 14.0845 12.4492 11.543C14.9937 9.00155 18.3055 7.37054 21.8713 6.90287C25.4371 6.4352 29.0575 7.15698 32.1713 8.95632C35.2851 10.7556 37.7183 13.532 39.0937 16.8549C40.469 20.1779 40.7096 23.8617 39.7783 27.3353C38.8469 30.8089 36.7956 33.8782 33.9423 36.0673C31.0891 38.2565 27.5933 39.4431 23.997 39.4433Z" fill="#D99058"/>
<path d="M24.0038 9.52329C21.5772 9.52258 19.1946 10.172 17.1039 11.404C15.0133 12.6361 13.2908 14.4057 12.1158 16.5289C10.9407 18.6521 10.3559 21.0513 10.4222 23.4771C10.4885 25.9029 11.2035 28.2666 12.4928 30.3225L12.8159 30.8358L11.4432 35.8454L16.5834 34.4979L17.0784 34.7912C19.1701 36.0323 21.5579 36.6863 23.9901 36.6841H23.997C27.599 36.6847 31.0538 35.2544 33.6012 32.7078C36.1487 30.1612 37.5802 26.7069 37.5808 23.1049C37.5814 19.5028 36.1511 16.048 33.6045 13.5006C31.0579 10.9531 27.6036 9.5216 24.0016 9.521L24.0038 9.52329ZM31.988 28.9337C31.6881 29.4301 31.2884 29.859 30.8142 30.1931C30.3401 30.5272 29.8018 30.7593 29.2334 30.8747C28.3755 31.0221 27.4951 30.9672 26.6622 30.7143C25.8718 30.4693 25.0954 30.1817 24.3361 29.8527C21.5168 28.4378 19.1136 26.3142 17.3626 23.6904C16.407 22.4759 15.8271 21.0087 15.6943 19.4691C15.6837 18.8337 15.8053 18.2031 16.0515 17.6172C16.2977 17.0314 16.663 16.5031 17.1243 16.066C17.2611 15.9109 17.4283 15.7855 17.6156 15.6976C17.8028 15.6097 18.0061 15.5612 18.2128 15.555C18.4832 15.555 18.7559 15.555 18.9943 15.5687C19.2463 15.5802 19.5809 15.4725 19.9109 16.27C20.2547 17.0858 21.0705 19.0956 21.1713 19.2995C21.2357 19.4066 21.2725 19.5279 21.2785 19.6527C21.2845 19.7775 21.2595 19.9018 21.2057 20.0145C21.1034 20.2599 20.966 20.4892 20.7978 20.6952C20.5915 20.9335 20.3693 21.2268 20.1859 21.4102C19.9797 21.6141 19.7688 21.8341 20.0049 22.242C20.6189 23.2911 21.3841 24.244 22.2759 25.07C23.2455 25.9297 24.3565 26.615 25.5599 27.0958C25.9678 27.302 26.2061 27.2654 26.4445 26.9927C26.6828 26.72 27.4643 25.801 27.737 25.3931C28.0097 24.9852 28.2801 25.0539 28.6536 25.1891C29.0272 25.3243 31.037 26.312 31.4449 26.5183C31.8528 26.7245 32.1255 26.8231 32.2263 26.9927C32.3365 27.6491 32.2537 28.3234 31.988 28.9337Z" fill="#D99058"/>
</svg>
