<svg width="87" height="87" viewBox="0 0 87 87" fill="none" xmlns="http://www.w3.org/2000/svg">
<path d="M60.2593 27.3818L58.908 26.7113C57.8945 26.2062 57.05 25.7029 56.3743 24.8617L53.839 22.3433C51.8121 20.4954 48.939 19.8231 46.4036 20.6626C44.7145 21.166 42.8565 21.166 41.1674 20.6626C38.801 19.487 36.0985 19.9904 34.2388 21.671L31.1984 24.8634C30.3539 25.534 29.5093 26.2062 28.6648 26.7113L27.3118 27.3818C24.9471 28.5591 23.5958 31.2465 23.9336 33.9355L25.7916 43.511C25.9605 44.5177 26.8051 45.1899 27.8185 45.1899C37.8163 45.1899 48.7954 45.3588 59.7525 45.3588C60.766 45.3588 61.4416 44.6866 61.6105 43.6782L63.4685 34.101C63.9753 31.2465 62.624 28.5591 60.2593 27.3818Z" fill="#212121"/>
<path d="M59.9806 42.0584C59.8539 43.6191 59.7525 45.3588 59.7525 45.3588C60.766 45.3588 61.4416 44.6866 61.6105 43.6782L61.7761 42.8235C62.8176 43.5309 63.5585 44.6008 63.8543 45.8246C64.1502 47.0484 63.9799 48.3385 63.3765 49.4436C62.7732 50.5486 61.7801 51.3895 60.5906 51.8024C59.4012 52.2153 58.1006 52.1706 56.9424 51.677C55.7841 51.1834 54.8511 50.2762 54.3251 49.1323C53.7991 47.9884 53.7177 46.6896 54.097 45.4891C54.4762 44.2885 55.2888 43.2721 56.3765 42.6379C57.4641 42.0036 58.7489 41.7971 59.9806 42.0584ZM25.6599 42.837L25.7916 43.511C25.9605 44.5177 26.8051 45.1899 27.8185 45.1899C27.8185 45.1899 27.7189 43.6056 27.5956 42.033C27.8985 41.9767 28.2087 41.9486 28.5263 41.9486C29.7387 41.9492 30.9108 42.3846 31.8296 43.1756C32.7485 43.9667 33.3532 45.061 33.5341 46.2599C33.715 47.4588 33.46 48.6828 32.8155 49.7097C32.1709 50.7366 31.1795 51.4984 30.0212 51.8568C28.8629 52.2151 27.6145 52.1463 26.5026 51.6627C25.3908 51.1791 24.4892 50.313 23.9614 49.2214C23.4337 48.1298 23.3149 46.8851 23.6265 45.7134C23.9382 44.5417 24.6596 43.5222 25.6599 42.837Z" fill="#F4C6AD"/>
<path d="M27.6648 45.1849C27.7155 45.1883 27.7667 45.1899 27.8185 45.1899C27.8185 45.1899 27.6496 42.5026 27.4807 40.6547C27.4807 39.8136 27.8185 38.8069 28.4942 38.3018L29.0009 37.7985C29.8454 37.1262 30.1833 36.1178 30.1833 35.1111V32.4221C30.1833 31.5826 30.69 30.9103 31.5345 30.7431C33.5631 30.2381 37.7876 29.3986 43.87 29.3986C49.9524 29.3986 54.1768 30.2381 56.2038 30.7431C56.8794 30.9103 57.555 31.5826 57.555 32.4221V35.1111C57.555 36.1178 58.0618 37.1262 58.7374 37.7968L59.0752 38.4707C59.7509 39.1413 60.0887 39.9825 60.0887 40.8219C59.9198 42.5026 59.7509 45.3572 59.7509 45.3572H59.8083L58.9722 57.826C58.4654 63.4001 54.0839 67.285 48.8596 67.285H38.7453C33.352 67.285 29.1377 63.4001 28.6327 57.826L27.6648 45.1849Z" fill="#FFD7C2"/>
<path d="M42.5238 46.2169L40.8516 51.5713C40.7723 51.8268 40.7544 52.0973 40.7995 52.361C40.8446 52.6246 40.9514 52.8739 41.1111 53.0884C41.2708 53.303 41.479 53.4768 41.7186 53.5956C41.9582 53.7144 42.2225 53.7749 42.49 53.7722H44.9662C46.1283 53.7722 46.9475 52.654 46.6046 51.5696L44.9324 46.2152C44.5727 45.0312 42.9005 45.0329 42.5238 46.2169Z" fill="#E5AF93"/>
<path d="M43.7281 56.9731C42.212 56.9831 40.7156 56.6286 39.3652 55.9393C38.9345 55.7197 38.47 56.2062 38.7419 56.5981C39.2878 57.42 40.029 58.0935 40.8993 58.5584C41.7695 59.0233 42.7415 59.265 43.7281 59.2618C44.7147 59.265 45.6867 59.0233 46.557 58.5584C47.4272 58.0935 48.1685 57.42 48.7143 56.5981C48.9846 56.191 48.5218 55.7197 48.091 55.9393C46.7406 56.6286 45.2443 56.9831 43.7281 56.9731Z" fill="#990838"/>
<path d="M31.9298 45.9467C32.1739 44.9772 32.7407 44.1196 33.5369 43.515C34.3331 42.9103 35.3113 42.5947 36.3108 42.6198C37.3102 42.645 38.2713 43.0095 39.0361 43.6534C39.8009 44.2973 40.3238 45.1823 40.5188 46.1629C40.538 46.2676 40.5338 46.3754 40.5065 46.4783C40.4791 46.5813 40.4294 46.6769 40.3608 46.7584C40.2922 46.8399 40.2065 46.9053 40.1097 46.9498C40.0129 46.9943 39.9075 47.0168 39.801 47.0158H32.7794C32.6477 47.0173 32.5173 46.9886 32.3984 46.9319C32.2794 46.8753 32.175 46.7923 32.093 46.6891C32.0111 46.586 31.9537 46.4655 31.9255 46.3368C31.8972 46.2081 31.8986 46.0747 31.9298 45.9467ZM55.5264 45.9467C55.2825 44.9988 54.7313 44.1586 53.9589 43.5574C53.1866 42.9562 52.2368 42.6281 51.2581 42.6242C50.2393 42.6217 49.2513 42.9736 48.4634 43.6194C47.6754 44.2653 47.1366 45.1651 46.9391 46.1645C46.9202 46.2691 46.9246 46.3765 46.952 46.4791C46.9793 46.5817 47.0289 46.6771 47.0973 46.7583C47.1657 46.8396 47.2511 46.9048 47.3476 46.9493C47.444 46.9938 47.549 47.0165 47.6553 47.0158H54.6768C54.8086 47.0173 54.9389 46.9886 55.0578 46.9319C55.1768 46.8753 55.2812 46.7923 55.3632 46.6891C55.4452 46.586 55.5025 46.4655 55.5308 46.3368C55.5591 46.2081 55.5576 46.0747 55.5264 45.9467Z" fill="white"/>
<path d="M34.031 46.2676C34.0311 45.8666 34.1169 45.4703 34.2828 45.1053C34.4486 44.7402 34.6907 44.4149 34.9927 44.1511C35.2946 43.8873 35.6496 43.6912 36.0336 43.5759C36.4176 43.4606 36.8219 43.4289 37.2192 43.4827C37.6166 43.5366 37.9978 43.6748 38.3372 43.8882C38.6767 44.1016 38.9666 44.3851 39.1875 44.7197C39.4084 45.0544 39.5551 45.4324 39.6178 45.8284C39.6805 46.2245 39.6577 46.6293 39.551 47.0159H34.1307C34.0641 46.772 34.0317 46.5204 34.031 46.2676ZM53.4252 46.2676C53.4252 44.7035 52.1584 43.4552 50.6078 43.4552C50.2384 43.4532 49.8722 43.5246 49.5307 43.6654C49.1891 43.8061 48.879 44.0134 48.6182 44.2751C48.3575 44.5367 48.1513 44.8477 48.0118 45.1897C47.8723 45.5318 47.8022 45.8982 47.8056 46.2676C47.8056 46.5333 47.8394 46.7828 47.9069 47.0159H53.3255C53.3931 46.7659 53.4252 46.5328 53.4252 46.2676Z" fill="#7D4533"/>
<path d="M36.8484 44.6697C37.1244 44.669 37.3959 44.7397 37.6365 44.8749C37.8771 45.0102 38.0785 45.2054 38.2214 45.4415C38.3642 45.6777 38.4435 45.9468 38.4515 46.2226C38.4596 46.4985 38.3961 46.7718 38.2673 47.0158H35.4313C35.3025 46.7718 35.239 46.4985 35.247 46.2226C35.2551 45.9468 35.3344 45.6777 35.4772 45.4415C35.62 45.2054 35.8215 45.0102 36.0621 44.8749C36.3027 44.7397 36.5724 44.669 36.8484 44.6697ZM50.5909 44.6697C50.3149 44.669 50.0434 44.7397 49.8029 44.8749C49.5623 45.0102 49.3608 45.2054 49.218 45.4415C49.0751 45.6777 48.9959 45.9468 48.9878 46.2226C48.9798 46.4985 49.0432 46.7718 49.1721 47.0158H52.008C52.1369 46.7718 52.2003 46.4985 52.1923 46.2226C52.1842 45.9468 52.105 45.6777 51.9621 45.4415C51.8193 45.2054 51.6178 45.0102 51.3772 44.8749C51.1367 44.7397 50.8669 44.669 50.5909 44.6697Z" fill="black"/>
<path d="M36.3806 45.1916C36.3806 45.472 36.1576 45.6984 35.8823 45.6984C35.7491 45.6966 35.6219 45.6424 35.5283 45.5476C35.4347 45.4527 35.3823 45.3249 35.3823 45.1916C35.3823 44.9112 35.6053 44.6849 35.8823 44.6849C36.1593 44.6849 36.3806 44.9112 36.3806 45.1916ZM50.2244 45.1916C50.2244 45.472 49.9997 45.6984 49.7227 45.6984C49.5895 45.6966 49.4623 45.6424 49.3687 45.5476C49.2752 45.4527 49.2227 45.3249 49.2227 45.1916C49.2227 44.9112 49.4474 44.6849 49.7227 44.6849C49.9997 44.6849 50.2244 44.9112 50.2244 45.1916Z" fill="white"/>
<path d="M31.842 38.5484L31.8453 38.545L31.8504 38.5417L31.8656 38.5298L31.9028 38.4994L32.0159 38.415C32.1094 38.3463 32.2344 38.2618 32.3909 38.1616C32.7051 37.964 33.151 37.7191 33.7135 37.4961C35.2074 36.9119 36.831 36.7398 38.4142 36.9978C38.6324 37.0322 38.8416 37.1092 39.03 37.2245C39.2184 37.3397 39.3823 37.491 39.5122 37.6695C39.6421 37.8481 39.7356 38.0505 39.7874 38.2652C39.8391 38.4799 39.848 38.7027 39.8136 38.9209C39.7793 39.139 39.7022 39.3483 39.587 39.5367C39.4717 39.7251 39.3205 39.8889 39.1419 40.0188C38.9634 40.1488 38.761 40.2423 38.5462 40.294C38.3315 40.3457 38.1088 40.3547 37.8906 40.3203C36.9003 40.1548 35.8837 40.2598 34.9482 40.6243C34.6149 40.7552 34.2976 40.9235 34.0023 41.126L33.9787 41.1446C33.8083 41.285 33.612 41.3904 33.4008 41.455C33.1897 41.5195 32.968 41.5418 32.7482 41.5206C32.5285 41.4995 32.3151 41.4352 32.1201 41.3316C31.9252 41.2279 31.7526 41.0869 31.6122 40.9165C31.4718 40.7462 31.3664 40.5498 31.3018 40.3387C31.2373 40.1276 31.215 39.9058 31.2362 39.6861C31.2789 39.2423 31.4962 38.8337 31.8403 38.5501M55.442 38.5484L55.4386 38.545L55.4335 38.5417L55.4183 38.5298L55.3812 38.4994L55.268 38.415C55.1459 38.3264 55.0208 38.2419 54.893 38.1616C54.4725 37.9015 54.0299 37.6788 53.5705 37.4961C52.0765 36.9119 50.453 36.7398 48.8697 36.9978C48.6516 37.0322 48.4423 37.1092 48.2539 37.2245C48.0655 37.3397 47.9017 37.491 47.7717 37.6695C47.6418 37.8481 47.5483 38.0505 47.4966 38.2652C47.4448 38.4799 47.4359 38.7027 47.4703 38.9209C47.5047 39.139 47.5817 39.3483 47.6969 39.5367C47.8122 39.7251 47.9634 39.8889 48.142 40.0188C48.3205 40.1488 48.523 40.2423 48.7377 40.294C48.9524 40.3457 49.1752 40.3547 49.3933 40.3203C50.3836 40.1548 51.4002 40.2598 52.3357 40.6243C52.6679 40.7577 52.9849 40.9258 53.2816 41.126L53.3053 41.1446C53.6495 41.4279 54.0923 41.5629 54.5361 41.5198C54.9798 41.4767 55.3883 41.2591 55.6717 40.9148C55.955 40.5706 56.09 40.1278 56.0469 39.6841C56.0038 39.2403 55.7862 38.8318 55.442 38.5484Z" fill="#212121"/>
</svg>
