<svg width="25" height="32" viewBox="0 0 25 32" fill="none" xmlns="http://www.w3.org/2000/svg">
<path d="M21 0.9375C21.8951 0.9375 22.7538 1.29285 23.3867 1.92578C24.0197 2.55872 24.375 3.41739 24.375 4.3125V27.6875C24.375 28.5826 24.0197 29.4413 23.3867 30.0742C22.7538 30.7072 21.8951 31.0625 21 31.0625H4C3.10489 31.0625 2.24622 30.7072 1.61328 30.0742C0.980346 29.4413 0.625 28.5826 0.625 27.6875V4.3125C0.625 3.41739 0.980346 2.55872 1.61328 1.92578C2.24622 1.29285 3.10489 0.9375 4 0.9375H21ZM4 3.4375C3.76794 3.4375 3.54495 3.52927 3.38086 3.69336C3.21677 3.85745 3.125 4.08044 3.125 4.3125V27.6875C3.125 27.9196 3.21676 28.1425 3.38086 28.3066C3.54495 28.4707 3.76794 28.5625 4 28.5625H21C21.2321 28.5625 21.455 28.4707 21.6191 28.3066C21.7832 28.1425 21.875 27.9196 21.875 27.6875V4.3125C21.875 4.08044 21.7832 3.85745 21.6191 3.69336C21.455 3.52926 21.2321 3.4375 21 3.4375H4ZM10.375 23.25C11.0654 23.25 11.625 23.8096 11.625 24.5C11.625 25.1904 11.0654 25.75 10.375 25.75H6.125C5.43464 25.75 4.875 25.1904 4.875 24.5C4.875 23.8096 5.43464 23.25 6.125 23.25H10.375ZM18.875 19C19.5654 19 20.125 19.5596 20.125 20.25C20.125 20.9404 19.5654 21.5 18.875 21.5H6.125C5.43464 21.5 4.875 20.9404 4.875 20.25C4.875 19.5596 5.43464 19 6.125 19H18.875ZM18.875 14.75C19.5654 14.75 20.125 15.3096 20.125 16C20.125 16.6904 19.5654 17.25 18.875 17.25H6.125C5.43464 17.25 4.875 16.6904 4.875 16C4.875 15.3096 5.43464 14.75 6.125 14.75H18.875ZM18.875 6.78125C19.8588 6.78125 20.6562 7.57874 20.6562 8.5625C20.6562 9.54626 19.8588 10.3438 18.875 10.3438C17.8912 10.3438 17.0938 9.54626 17.0938 8.5625C17.0938 7.57874 17.8912 6.78125 18.875 6.78125ZM10.375 7.3125C11.0654 7.3125 11.625 7.87214 11.625 8.5625C11.625 9.25286 11.0654 9.8125 10.375 9.8125H6.125C5.43464 9.8125 4.875 9.25286 4.875 8.5625C4.875 7.87214 5.43464 7.3125 6.125 7.3125H10.375ZM18.875 7.84375C18.478 7.84375 18.1562 8.16555 18.1562 8.5625C18.1562 8.95945 18.478 9.28125 18.875 9.28125C19.272 9.28125 19.5938 8.95945 19.5938 8.5625C19.5938 8.16555 19.272 7.84375 18.875 7.84375ZM18.875 8.03125C19.1684 8.03125 19.4062 8.2691 19.4062 8.5625C19.4062 8.8559 19.1684 9.09375 18.875 9.09375C18.5816 9.09375 18.3438 8.8559 18.3438 8.5625C18.3438 8.2691 18.5816 8.03125 18.875 8.03125Z" fill="#225E8A"/>
</svg>
