<svg width="27" height="30" viewBox="0 0 27 30" fill="none" xmlns="http://www.w3.org/2000/svg">
<path d="M23.9834 0.75C24.5287 0.75 25.0545 0.939688 25.4727 1.28223L25.6455 1.43848L25.8018 1.61035C26.1443 2.02843 26.3339 2.55438 26.334 3.09961V21.6777C26.334 21.7462 26.3272 21.8138 26.3184 21.8799C26.3274 21.9464 26.334 22.014 26.334 22.083C26.334 22.8596 25.7435 23.4982 24.9873 23.5752L24.834 23.583H5.01953C5.01303 23.5831 5.00652 23.584 5 23.584C4.6465 23.5841 4.30759 23.7246 4.05762 23.9746C3.8078 24.2246 3.66708 24.5636 3.66699 24.917C3.66712 25.2704 3.80768 25.6104 4.05762 25.8604C4.27627 26.0788 4.56326 26.2138 4.86816 26.2441L4.99023 26.25H24.834L24.9873 26.2578C25.7436 26.3348 26.334 26.9734 26.334 27.75C26.334 28.5266 25.7436 29.1652 24.9873 29.2422L24.834 29.25H5.01953L5 29.251L4.78516 29.2451C3.71442 29.1919 2.69827 28.743 1.93652 27.9814C1.17476 27.2197 0.725143 26.2028 0.671875 25.1318L0.666992 24.917V5.08301C0.667078 3.93385 1.12394 2.83211 1.93652 2.01953C2.7491 1.20695 3.85085 0.750086 5 0.75H23.9834ZM5 3.75C4.6465 3.75009 4.30759 3.89065 4.05762 4.14062C3.80765 4.3906 3.66708 4.7295 3.66699 5.08301V20.7949C4.07067 20.6642 4.49435 20.5924 4.92578 20.585C4.95037 20.5838 4.97511 20.583 5 20.583H23.334V3.75H5ZM17.75 6.41699C18.5784 6.41699 19.25 7.08857 19.25 7.91699C19.2497 8.74519 18.5783 9.41699 17.75 9.41699H9.25C8.42174 9.41699 7.75026 8.74519 7.75 7.91699C7.75 7.08857 8.42157 6.41699 9.25 6.41699H17.75Z" fill="#225E8A"/>
</svg>
