<svg width="54" height="53" viewBox="0 0 54 53" fill="none" xmlns="http://www.w3.org/2000/svg">
<path d="M15.9132 0.286133H37.984C46.392 0.286133 53.2234 7.11758 53.2234 15.5255V37.5963C53.2234 41.6381 51.6178 45.5143 48.7599 48.3722C45.902 51.2301 42.0258 52.8357 37.984 52.8357H15.9132C7.50527 52.8357 0.673828 46.0043 0.673828 37.5963V15.5255C0.673828 11.4838 2.2794 7.60758 5.13734 4.74964C7.99528 1.89171 11.8715 0.286133 15.9132 0.286133ZM15.3877 5.54109C12.879 5.54109 10.4731 6.53765 8.69924 8.31155C6.92535 10.0854 5.92879 12.4914 5.92879 15V38.1218C5.92879 43.3505 10.159 47.5808 15.3877 47.5808H38.5095C41.0182 47.5808 43.4241 46.5842 45.198 44.8103C46.9719 43.0364 47.9684 40.6305 47.9684 38.1218V15C47.9684 9.77133 43.7382 5.54109 38.5095 5.54109H15.3877ZM40.7429 9.48231C41.6139 9.48231 42.4493 9.82834 43.0653 10.4443C43.6812 11.0602 44.0272 11.8956 44.0272 12.7667C44.0272 13.6377 43.6812 14.4731 43.0653 15.089C42.4493 15.705 41.6139 16.051 40.7429 16.051C39.8718 16.051 39.0364 15.705 38.4205 15.089C37.8046 14.4731 37.4585 13.6377 37.4585 12.7667C37.4585 11.8956 37.8046 11.0602 38.4205 10.4443C39.0364 9.82834 39.8718 9.48231 40.7429 9.48231ZM26.9486 13.4235C30.4329 13.4235 33.7744 14.8076 36.2382 17.2714C38.7019 19.7351 40.086 23.0767 40.086 26.5609C40.086 30.0452 38.7019 33.3867 36.2382 35.8505C33.7744 38.3142 30.4329 39.6983 26.9486 39.6983C23.4644 39.6983 20.1228 38.3142 17.6591 35.8505C15.1953 33.3867 13.8112 30.0452 13.8112 26.5609C13.8112 23.0767 15.1953 19.7351 17.6591 17.2714C20.1228 14.8076 23.4644 13.4235 26.9486 13.4235ZM26.9486 18.6785C24.8581 18.6785 22.8531 19.509 21.3749 20.9872C19.8966 22.4654 19.0662 24.4704 19.0662 26.5609C19.0662 28.6515 19.8966 30.6564 21.3749 32.1346C22.8531 33.6129 24.8581 34.4434 26.9486 34.4434C29.0392 34.4434 31.0441 33.6129 32.5223 32.1346C34.0006 30.6564 34.8311 28.6515 34.8311 26.5609C34.8311 24.4704 34.0006 22.4654 32.5223 20.9872C31.0441 19.509 29.0392 18.6785 26.9486 18.6785Z" fill="#225E8A"/>
</svg>
