<svg width="55" height="55" viewBox="0 0 55 55" fill="none" xmlns="http://www.w3.org/2000/svg">
<path fill-rule="evenodd" clip-rule="evenodd" d="M7.65818 0.313477C5.74184 0.313477 3.90399 1.07474 2.54894 2.4298C1.19388 3.78485 0.432617 5.6227 0.432617 7.53904C0.432617 9.45538 1.19388 11.2932 2.54894 12.6483C3.90399 14.0033 5.74184 14.7646 7.65818 14.7646C9.57452 14.7646 11.4124 14.0033 12.7674 12.6483C14.1225 11.2932 14.8837 9.45538 14.8837 7.53904C14.8837 5.6227 14.1225 3.78485 12.7674 2.4298C11.4124 1.07474 9.57452 0.313477 7.65818 0.313477ZM4.37383 7.53904C4.37383 6.66798 4.71986 5.83259 5.3358 5.21666C5.95173 4.60072 6.78712 4.25469 7.65818 4.25469C8.52925 4.25469 9.36463 4.60072 9.98057 5.21666C10.5965 5.83259 10.9425 6.66798 10.9425 7.53904C10.9425 8.41011 10.5965 9.24549 9.98057 9.86143C9.36463 10.4774 8.52925 10.8234 7.65818 10.8234C6.78712 10.8234 5.95173 10.4774 5.3358 9.86143C4.71986 9.24549 4.37383 8.41011 4.37383 7.53904ZM0.432617 18.049C0.432617 17.5263 0.640234 17.0251 1.00979 16.6555C1.37936 16.286 1.88059 16.0783 2.40323 16.0783H12.9131C13.4358 16.0783 13.937 16.286 14.3066 16.6555C14.6761 17.0251 14.8837 17.5263 14.8837 18.049V52.2062C14.8837 52.7288 14.6761 53.23 14.3066 53.5996C13.937 53.9692 13.4358 54.1768 12.9131 54.1768H2.40323C1.88059 54.1768 1.37936 53.9692 1.00979 53.5996C0.640234 53.23 0.432617 52.7288 0.432617 52.2062V18.049ZM4.37383 20.0196V50.2356H10.9425V20.0196H4.37383ZM18.825 18.049C18.825 17.5263 19.0326 17.0251 19.4021 16.6555C19.7717 16.286 20.2729 16.0783 20.7956 16.0783H31.3055C31.8281 16.0783 32.3294 16.286 32.6989 16.6555C33.0685 17.0251 33.2761 17.5263 33.2761 18.049V19.1893L34.4191 18.6979C36.3898 17.8561 38.4804 17.3286 40.6146 17.1346C47.9059 16.4725 54.2959 22.2004 54.2959 29.5573V52.2062C54.2959 52.7288 54.0883 53.23 53.7187 53.5996C53.3492 53.9692 52.848 54.1768 52.3253 54.1768H41.8154C41.2928 54.1768 40.7915 53.9692 40.422 53.5996C40.0524 53.23 39.8448 52.7288 39.8448 52.2062V33.8138C39.8448 32.9428 39.4988 32.1074 38.8828 31.4914C38.2669 30.8755 37.4315 30.5295 36.5604 30.5295C35.6894 30.5295 34.854 30.8755 34.2381 31.4914C33.6221 32.1074 33.2761 32.9428 33.2761 33.8138V52.2062C33.2761 52.7288 33.0685 53.23 32.6989 53.5996C32.3294 53.9692 31.8281 54.1768 31.3055 54.1768H20.7956C20.2729 54.1768 19.7717 53.9692 19.4021 53.5996C19.0326 53.23 18.825 52.7288 18.825 52.2062V18.049ZM22.7662 20.0196V50.2356H29.3349V33.8138C29.3349 31.8975 30.0961 30.0596 31.4512 28.7046C32.8063 27.3495 34.6441 26.5883 36.5604 26.5883C38.4768 26.5883 40.3146 27.3495 41.6697 28.7046C43.0247 30.0596 43.786 31.8975 43.786 33.8138V50.2356H50.3547V29.5573C50.3547 24.5546 45.9905 20.6029 40.9746 21.06C39.2514 21.2164 37.5633 21.642 35.9719 22.3212L32.0832 23.9897C31.7833 24.1185 31.456 24.1708 31.1309 24.1419C30.8057 24.113 30.4929 24.0037 30.2204 23.824C29.9479 23.6442 29.7243 23.3996 29.5698 23.1121C29.4152 22.8246 29.3345 22.5032 29.3349 22.1767V20.0196H22.7662Z" fill="#225E8A"/>
</svg>
