<svg width="23" height="27" viewBox="0 0 23 27" fill="none" xmlns="http://www.w3.org/2000/svg">
<path d="M11.2497 24.3059C13.9972 21.7836 16.0354 19.4923 17.3642 17.432C18.6929 15.3718 19.3573 13.5417 19.3573 11.9418C19.3573 9.48697 18.5749 7.47717 17.0101 5.91239C15.4454 4.34762 13.5252 3.56478 11.2497 3.56388C8.9741 3.56298 7.05439 4.34582 5.49052 5.91239C3.92664 7.47897 3.1438 9.48877 3.142 11.9418C3.142 13.5408 3.80638 15.3709 5.13513 17.432C6.46389 19.4932 8.50206 21.7845 11.2497 24.3059ZM11.2497 26.9747C10.9344 26.9747 10.6191 26.9184 10.3038 26.8058C9.98846 26.6932 9.70695 26.5243 9.45921 26.2991C7.99533 24.9478 6.70036 23.6303 5.5743 22.3466C4.44824 21.0629 3.5082 19.8188 2.75419 18.6144C2.00018 17.4099 1.42588 16.2501 1.03131 15.1348C0.63674 14.0196 0.439453 12.9552 0.439453 11.9418C0.439453 8.56359 1.52633 5.8723 3.70008 3.86791C5.87383 1.86352 8.39035 0.861328 11.2497 0.861328C14.1089 0.861328 16.6259 1.86352 18.8006 3.86791C20.9752 5.8723 22.0617 8.56359 22.0599 11.9418C22.0599 12.9552 21.863 14.0196 21.4693 15.1348C21.0757 16.2501 20.5014 17.4099 19.7465 18.6144C18.9916 19.8188 18.0511 21.0629 16.925 22.3466C15.7989 23.6303 14.504 24.9478 13.0401 26.2991C12.7924 26.5243 12.5108 26.6932 12.1955 26.8058C11.8802 26.9184 11.5649 26.9747 11.2497 26.9747ZM11.2497 14.3741C11.9929 14.3741 12.6293 14.1097 13.159 13.5809C13.6887 13.0521 13.9531 12.4156 13.9522 11.6715C13.9513 10.9274 13.6869 10.2914 13.159 9.76353C12.6311 9.23563 11.9947 8.97078 11.2497 8.96898C10.5046 8.96717 9.86865 9.23203 9.34165 9.76353C8.81466 10.295 8.5498 10.931 8.5471 11.6715C8.5444 12.412 8.80925 13.0485 9.34165 13.5809C9.87405 14.1133 10.5101 14.3777 11.2497 14.3741Z" fill="#225E8A"/>
</svg>
