<svg width="274" height="65" viewBox="0 0 274 65" fill="none" xmlns="http://www.w3.org/2000/svg">
<path d="M3.5 35.3008C4.48437 35.3008 5.33854 35.4987 6.0625 35.8841C6.79687 36.2747 7.36458 36.8216 7.77083 37.5299C8.17187 38.2279 8.375 39.0299 8.375 39.9466C8.375 40.8633 8.17187 41.6758 7.77083 42.3841C7.36458 43.0924 6.79687 43.6445 6.0625 44.0299C5.32292 44.4206 4.46875 44.6133 3.5 44.6133H0V35.3008H3.5ZM3.35417 42.6549C4.21354 42.6549 4.88021 42.4206 5.35417 41.9466C5.83854 41.4779 6.08333 40.8112 6.08333 39.9466C6.08333 39.1029 5.83854 38.4414 5.35417 37.9674C4.88021 37.4831 4.21354 37.2383 3.35417 37.2383H2.27083V42.6549H3.35417Z" fill="#225E8A"/>
<path d="M15.1276 44.6979C14.2526 44.6979 13.4453 44.5 12.7109 44.0938C11.987 43.6927 11.4089 43.1302 10.9818 42.4063C10.5495 41.6719 10.3359 40.8438 10.3359 39.9271C10.3359 39.026 10.5495 38.2135 10.9818 37.4896C11.4089 36.7552 11.987 36.1875 12.7109 35.7813C13.4453 35.3646 14.2526 35.1562 15.1276 35.1562C16.0026 35.1562 16.7995 35.3646 17.5234 35.7813C18.2578 36.1875 18.8359 36.7552 19.2526 37.4896C19.6797 38.2135 19.8984 39.026 19.8984 39.9271C19.8984 40.8438 19.6797 41.6719 19.2526 42.4063C18.8359 43.1302 18.2578 43.6927 17.5234 44.0938C16.7995 44.5 16.0026 44.6979 15.1276 44.6979ZM15.1276 42.6354C15.862 42.6354 16.4505 42.3958 16.8984 41.9063C17.3568 41.4063 17.5859 40.75 17.5859 39.9271C17.5859 39.1094 17.3568 38.4583 16.8984 37.9688C16.4505 37.4688 15.862 37.2188 15.1276 37.2188C14.3776 37.2188 13.7734 37.4635 13.3151 37.9479C12.8672 38.4375 12.6484 39.0938 12.6484 39.9271C12.6484 40.75 12.8672 41.4063 13.3151 41.9063C13.7734 42.3958 14.3776 42.6354 15.1276 42.6354Z" fill="#225E8A"/>
<path d="M28.9134 35.3008V37.1133H26.4551V44.6133H24.1842V37.1133H21.7051V35.3008H28.9134Z" fill="#225E8A"/>
<path d="M37.8197 35.3008V37.1133H35.3613V44.6133H33.0905V37.1133H30.6113V35.3008H37.8197Z" fill="#225E8A"/>
<path d="M41.0807 44.7161C40.6901 44.7161 40.362 44.6016 40.1016 44.362C39.8516 44.1276 39.7266 43.8359 39.7266 43.487C39.7266 43.1432 39.8516 42.8516 40.1016 42.612C40.362 42.3776 40.6901 42.2578 41.0807 42.2578C41.4661 42.2578 41.7891 42.3776 42.0391 42.612C42.2995 42.8516 42.4349 43.1432 42.4349 43.487C42.4349 43.8359 42.2995 44.1276 42.0391 44.362C41.7891 44.6016 41.4661 44.7161 41.0807 44.7161Z" fill="#225E8A"/>
<path d="M48.1973 44.6979C47.515 44.6979 46.9056 44.5938 46.3639 44.3854C45.8327 44.1667 45.4056 43.8385 45.0723 43.4063C44.7493 42.9635 44.5827 42.4375 44.5723 41.8229H46.9889C47.015 42.1719 47.1348 42.4375 47.3431 42.6146C47.5514 42.7969 47.8118 42.8854 48.1348 42.8854C48.4681 42.8854 48.7285 42.8125 48.9264 42.6563C49.1191 42.5052 49.2181 42.2917 49.2181 42.0104C49.2181 41.7917 49.14 41.6042 48.9889 41.4479C48.8327 41.2969 48.6452 41.1719 48.4264 41.0729C48.2025 40.9792 47.8848 40.8646 47.4681 40.7396C46.8535 40.5625 46.3639 40.3802 45.9889 40.1979C45.6139 40.0052 45.2858 39.7292 45.0098 39.3646C44.7285 39.0052 44.5931 38.5313 44.5931 37.9479C44.5931 37.0729 44.9056 36.3958 45.5306 35.9063C46.1556 35.4063 46.9733 35.1562 47.9889 35.1562C49.015 35.1562 49.8431 35.4063 50.4681 35.9063C51.0931 36.3958 51.4316 37.0729 51.4889 37.9479H49.0306C49.015 37.6563 48.9056 37.4271 48.6973 37.2604C48.4889 37.0833 48.2233 36.9896 47.9056 36.9896C47.64 36.9896 47.416 37.0677 47.2389 37.2188C47.0723 37.3594 46.9889 37.5625 46.9889 37.8229C46.9889 38.1302 47.1243 38.3646 47.4056 38.5313C47.6973 38.6979 48.14 38.8802 48.7389 39.0729C49.3483 39.2813 49.8431 39.4844 50.2181 39.6771C50.5931 39.8594 50.9108 40.1302 51.1764 40.4896C51.4525 40.8385 51.5931 41.2917 51.5931 41.8438C51.5931 42.375 51.4577 42.8594 51.1973 43.3021C50.9316 43.7344 50.541 44.0729 50.0306 44.3229C49.515 44.5729 48.9056 44.6979 48.1973 44.6979Z" fill="#225E8A"/>
<path d="M57.4219 44.6979C56.7396 44.6979 56.1302 44.5938 55.5885 44.3854C55.0573 44.1667 54.6302 43.8385 54.2969 43.4063C53.974 42.9635 53.8073 42.4375 53.7969 41.8229H56.2135C56.2396 42.1719 56.3594 42.4375 56.5677 42.6146C56.776 42.7969 57.0365 42.8854 57.3594 42.8854C57.6927 42.8854 57.9531 42.8125 58.151 42.6563C58.3437 42.5052 58.4427 42.2917 58.4427 42.0104C58.4427 41.7917 58.3646 41.6042 58.2135 41.4479C58.0573 41.2969 57.8698 41.1719 57.651 41.0729C57.4271 40.9792 57.1094 40.8646 56.6927 40.7396C56.0781 40.5625 55.5885 40.3802 55.2135 40.1979C54.8385 40.0052 54.5104 39.7292 54.2344 39.3646C53.9531 39.0052 53.8177 38.5313 53.8177 37.9479C53.8177 37.0729 54.1302 36.3958 54.7552 35.9063C55.3802 35.4063 56.1979 35.1562 57.2135 35.1562C58.2396 35.1562 59.0677 35.4063 59.6927 35.9063C60.3177 36.3958 60.6562 37.0729 60.7135 37.9479H58.2552C58.2396 37.6563 58.1302 37.4271 57.9219 37.2604C57.7135 37.0833 57.4479 36.9896 57.1302 36.9896C56.8646 36.9896 56.6406 37.0677 56.4635 37.2188C56.2969 37.3594 56.2135 37.5625 56.2135 37.8229C56.2135 38.1302 56.349 38.3646 56.6302 38.5313C56.9219 38.6979 57.3646 38.8802 57.9635 39.0729C58.5729 39.2813 59.0677 39.4844 59.4427 39.6771C59.8177 39.8594 60.1354 40.1302 60.401 40.4896C60.6771 40.8385 60.8177 41.2917 60.8177 41.8438C60.8177 42.375 60.6823 42.8594 60.4219 43.3021C60.1562 43.7344 59.7656 44.0729 59.2552 44.3229C58.7396 44.5729 58.1302 44.6979 57.4219 44.6979Z" fill="#225E8A"/>
<path d="M69.0846 42.9674H65.6055L65.043 44.6133H62.668L66.043 35.3008H68.668L72.043 44.6133H69.6471L69.0846 42.9674ZM68.5013 41.2174L67.3346 37.8008L66.2096 41.2174H68.5013Z" fill="#225E8A"/>
<path d="M83.8044 42.9674H80.3252L79.7627 44.6133H77.3877L80.7627 35.3008H83.3877L86.7627 44.6133H84.3669L83.8044 42.9674ZM83.221 41.2174L82.0544 37.8008L80.9294 41.2174H83.221Z" fill="#225E8A"/>
<path d="M97.1901 44.6133H94.9193L91.1068 38.8633V44.6133H88.8359V35.3008H91.1068L94.9193 41.0716V35.3008H97.1901V44.6133Z" fill="#225E8A"/>
<path d="M108.233 44.6133H105.962L102.15 38.8633V44.6133H99.8789V35.3008H102.15L105.962 41.0716V35.3008H108.233V44.6133Z" fill="#225E8A"/>
<path d="M116.735 42.9674H113.256L112.693 44.6133H110.318L113.693 35.3008H116.318L119.693 44.6133H117.298L116.735 42.9674ZM116.152 41.2174L114.985 37.8008L113.86 41.2174H116.152Z" fill="#225E8A"/>
<path d="M126.537 44.6133L124.6 41.0924H124.037V44.6133H121.767V35.3008H125.579C126.313 35.3008 126.938 35.4362 127.454 35.6966C127.98 35.9466 128.371 36.2956 128.621 36.7383C128.881 37.1862 129.017 37.6862 129.017 38.2383C129.017 38.8529 128.834 39.3997 128.475 39.8841C128.126 40.3737 127.61 40.7174 126.933 40.9258L129.079 44.6133H126.537ZM124.037 39.4883H125.454C125.871 39.4883 126.183 39.3945 126.392 39.1966C126.6 38.9883 126.704 38.6966 126.704 38.3216C126.704 37.9779 126.6 37.6966 126.392 37.4883C126.183 37.2799 125.871 37.1758 125.454 37.1758H124.037V39.4883Z" fill="#225E8A"/>
<path d="M135.899 44.6979C135.024 44.6979 134.217 44.5 133.482 44.0938C132.758 43.6927 132.18 43.1302 131.753 42.4063C131.321 41.6719 131.107 40.8438 131.107 39.9271C131.107 39.026 131.321 38.2135 131.753 37.4896C132.18 36.7552 132.758 36.1875 133.482 35.7813C134.217 35.3646 135.024 35.1562 135.899 35.1562C136.774 35.1562 137.571 35.3646 138.295 35.7813C139.029 36.1875 139.607 36.7552 140.024 37.4896C140.451 38.2135 140.67 39.026 140.67 39.9271C140.67 40.8438 140.451 41.6719 140.024 42.4063C139.607 43.1302 139.029 43.6927 138.295 44.0938C137.571 44.5 136.774 44.6979 135.899 44.6979ZM135.899 42.6354C136.633 42.6354 137.222 42.3958 137.67 41.9063C138.128 41.4063 138.357 40.75 138.357 39.9271C138.357 39.1094 138.128 38.4583 137.67 37.9688C137.222 37.4688 136.633 37.2188 135.899 37.2188C135.149 37.2188 134.545 37.4635 134.087 37.9479C133.639 38.4375 133.42 39.0938 133.42 39.9271C133.42 40.75 133.639 41.4063 134.087 41.9063C134.545 42.3958 135.149 42.6354 135.899 42.6354Z" fill="#225E8A"/>
<path d="M146.352 44.6979C145.669 44.6979 145.06 44.5938 144.518 44.3854C143.987 44.1667 143.56 43.8385 143.227 43.4063C142.904 42.9635 142.737 42.4375 142.727 41.8229H145.143C145.169 42.1719 145.289 42.4375 145.497 42.6146C145.706 42.7969 145.966 42.8854 146.289 42.8854C146.622 42.8854 146.883 42.8125 147.081 42.6563C147.273 42.5052 147.372 42.2917 147.372 42.0104C147.372 41.7917 147.294 41.6042 147.143 41.4479C146.987 41.2969 146.799 41.1719 146.581 41.0729C146.357 40.9792 146.039 40.8646 145.622 40.7396C145.008 40.5625 144.518 40.3802 144.143 40.1979C143.768 40.0052 143.44 39.7292 143.164 39.3646C142.883 39.0052 142.747 38.5313 142.747 37.9479C142.747 37.0729 143.06 36.3958 143.685 35.9063C144.31 35.4063 145.128 35.1562 146.143 35.1562C147.169 35.1562 147.997 35.4063 148.622 35.9063C149.247 36.3958 149.586 37.0729 149.643 37.9479H147.185C147.169 37.6563 147.06 37.4271 146.852 37.2604C146.643 37.0833 146.378 36.9896 146.06 36.9896C145.794 36.9896 145.57 37.0677 145.393 37.2188C145.227 37.3594 145.143 37.5625 145.143 37.8229C145.143 38.1302 145.279 38.3646 145.56 38.5313C145.852 38.6979 146.294 38.8802 146.893 39.0729C147.503 39.2813 147.997 39.4844 148.372 39.6771C148.747 39.8594 149.065 40.1302 149.331 40.4896C149.607 40.8385 149.747 41.2917 149.747 41.8438C149.747 42.375 149.612 42.8594 149.352 43.3021C149.086 43.7344 148.695 44.0729 148.185 44.3229C147.669 44.5729 147.06 44.6979 146.352 44.6979Z" fill="#225E8A"/>
<path d="M158.014 42.9674H154.535L153.973 44.6133H151.598L154.973 35.3008H157.598L160.973 44.6133H158.577L158.014 42.9674ZM157.431 41.2174L156.264 37.8008L155.139 41.2174H157.431Z" fill="#225E8A"/>
<path d="M174.025 38.3008C174.025 38.8424 173.9 39.3372 173.65 39.7799C173.41 40.2279 173.035 40.5872 172.525 40.8633C172.009 41.1289 171.369 41.2591 170.608 41.2591H169.192V44.6133H166.921V35.3008H170.608C171.343 35.3008 171.968 35.4362 172.483 35.6966C172.994 35.9466 173.379 36.3008 173.629 36.7591C173.89 37.207 174.025 37.7174 174.025 38.3008ZM170.442 39.4674C170.869 39.4674 171.192 39.3737 171.4 39.1758C171.608 38.9674 171.713 38.6758 171.713 38.3008C171.713 37.9258 171.608 37.6445 171.4 37.4466C171.192 37.2383 170.869 37.1341 170.442 37.1341H169.192V39.4674H170.442Z" fill="#225E8A"/>
<path d="M182.078 42.9674H178.599L178.036 44.6133H175.661L179.036 35.3008H181.661L185.036 44.6133H182.64L182.078 42.9674ZM181.494 41.2174L180.328 37.8008L179.203 41.2174H181.494Z" fill="#225E8A"/>
<path d="M191.526 44.6979C190.651 44.6979 189.844 44.5 189.109 44.0938C188.385 43.6927 187.807 43.1302 187.38 42.4063C186.948 41.6719 186.734 40.8438 186.734 39.9271C186.734 39.026 186.948 38.2135 187.38 37.4896C187.807 36.7552 188.385 36.1875 189.109 35.7813C189.844 35.3646 190.651 35.1562 191.526 35.1562C192.401 35.1562 193.198 35.3646 193.922 35.7813C194.656 36.1875 195.234 36.7552 195.651 37.4896C196.078 38.2135 196.297 39.026 196.297 39.9271C196.297 40.8438 196.078 41.6719 195.651 42.4063C195.234 43.1302 194.656 43.6927 193.922 44.0938C193.198 44.5 192.401 44.6979 191.526 44.6979ZM191.526 42.6354C192.26 42.6354 192.849 42.3958 193.297 41.9063C193.755 41.4063 193.984 40.75 193.984 39.9271C193.984 39.1094 193.755 38.4583 193.297 37.9688C192.849 37.4688 192.26 37.2188 191.526 37.2188C190.776 37.2188 190.172 37.4635 189.714 37.9479C189.266 38.4375 189.047 39.0938 189.047 39.9271C189.047 40.75 189.266 41.4063 189.714 41.9063C190.172 42.3958 190.776 42.6354 191.526 42.6354Z" fill="#225E8A"/>
<path d="M200.874 42.8633H203.854V44.6133H198.604V35.3008H200.874V42.8633Z" fill="#225E8A"/>
<path d="M211.809 42.9674H208.33L207.768 44.6133H205.393L208.768 35.3008H211.393L214.768 44.6133H212.372L211.809 42.9674ZM211.226 41.2174L210.059 37.8008L208.934 41.2174H211.226Z" fill="#225E8A"/>
<path d="M225.195 44.6133H222.924L219.112 38.8633V44.6133H216.841V35.3008H219.112L222.924 41.0716V35.3008H225.195V44.6133Z" fill="#225E8A"/>
<path d="M234.593 35.3008V37.1133H232.135V44.6133H229.864V37.1133H227.385V35.3008H234.593Z" fill="#225E8A"/>
<path d="M241.207 44.6979C240.332 44.6979 239.524 44.5 238.79 44.0938C238.066 43.6927 237.488 43.1302 237.061 42.4063C236.629 41.6719 236.415 40.8438 236.415 39.9271C236.415 39.026 236.629 38.2135 237.061 37.4896C237.488 36.7552 238.066 36.1875 238.79 35.7813C239.524 35.3646 240.332 35.1562 241.207 35.1562C242.082 35.1562 242.879 35.3646 243.603 35.7813C244.337 36.1875 244.915 36.7552 245.332 37.4896C245.759 38.2135 245.978 39.026 245.978 39.9271C245.978 40.8438 245.759 41.6719 245.332 42.4063C244.915 43.1302 244.337 43.6927 243.603 44.0938C242.879 44.5 242.082 44.6979 241.207 44.6979ZM241.207 42.6354C241.941 42.6354 242.53 42.3958 242.978 41.9063C243.436 41.4063 243.665 40.75 243.665 39.9271C243.665 39.1094 243.436 38.4583 242.978 37.9688C242.53 37.4688 241.941 37.2188 241.207 37.2188C240.457 37.2188 239.853 37.4635 239.394 37.9479C238.946 38.4375 238.728 39.0938 238.728 39.9271C238.728 40.75 238.946 41.4063 239.394 41.9063C239.853 42.3958 240.457 42.6354 241.207 42.6354Z" fill="#225E8A"/>
<path d="M256.639 44.6133H254.368L250.556 38.8633V44.6133H248.285V35.3008H250.556L254.368 41.0716V35.3008H256.639V44.6133Z" fill="#225E8A"/>
<path d="M261.599 35.3008V44.6133H259.328V35.3008H261.599Z" fill="#225E8A"/>
<path d="M268.722 44.6979C267.847 44.6979 267.04 44.5 266.306 44.0938C265.582 43.6927 265.004 43.1302 264.576 42.4063C264.144 41.6719 263.931 40.8438 263.931 39.9271C263.931 39.026 264.144 38.2135 264.576 37.4896C265.004 36.7552 265.582 36.1875 266.306 35.7813C267.04 35.3646 267.847 35.1562 268.722 35.1562C269.597 35.1562 270.394 35.3646 271.118 35.7813C271.853 36.1875 272.431 36.7552 272.847 37.4896C273.274 38.2135 273.493 39.026 273.493 39.9271C273.493 40.8438 273.274 41.6719 272.847 42.4063C272.431 43.1302 271.853 43.6927 271.118 44.0938C270.394 44.5 269.597 44.6979 268.722 44.6979ZM268.722 42.6354C269.457 42.6354 270.045 42.3958 270.493 41.9063C270.951 41.4063 271.181 40.75 271.181 39.9271C271.181 39.1094 270.951 38.4583 270.493 37.9688C270.045 37.4688 269.457 37.2188 268.722 37.2188C267.972 37.2188 267.368 37.4635 266.91 37.9479C266.462 38.4375 266.243 39.0938 266.243 39.9271C266.243 40.75 266.462 41.4063 266.91 41.9063C267.368 42.3958 267.972 42.6354 268.722 42.6354Z" fill="#225E8A"/>
<path d="M111.875 55.5391C112.885 55.5391 113.76 55.7266 114.5 56.1016C115.234 56.4766 115.797 57.0182 116.188 57.7266C116.589 58.4245 116.792 59.2422 116.792 60.1849C116.792 61.1328 116.589 61.9505 116.188 62.6432C115.797 63.3411 115.234 63.8724 114.5 64.2474C113.76 64.612 112.885 64.7891 111.875 64.7891H109V55.5391H111.875ZM111.875 63.7891C113.068 63.7891 113.979 63.4766 114.604 62.8516C115.24 62.2161 115.563 61.3255 115.563 60.1849C115.563 59.0339 115.24 58.138 114.604 57.4974C113.979 56.8464 113.068 56.5182 111.875 56.5182H110.208V63.7891H111.875Z" fill="#225E8A"/>
<path d="M119.991 55.5391V64.7891H118.782V55.5391H119.991Z" fill="#225E8A"/>
<path d="M123.654 56.5156V59.6198H127.029V60.599H123.654V63.7865H127.424V64.7865H122.445V55.5156H127.424V56.5156H123.654Z" fill="#225E8A"/>
<path d="M135.341 55.5391V56.5182H132.82V64.7891H131.612V56.5182H129.091V55.5391H135.341Z" fill="#225E8A"/>
<path d="M138.44 55.5391V64.7891H137.231V55.5391H138.44Z" fill="#225E8A"/>
<path d="M143.832 64.8724C143.218 64.8724 142.671 64.7682 142.187 64.5599C141.697 64.3411 141.317 64.0391 141.041 63.6641C140.775 63.2786 140.634 62.8307 140.624 62.3307H141.916C141.957 62.763 142.134 63.1224 142.457 63.4141C142.775 63.7057 143.233 63.8516 143.832 63.8516C144.4 63.8516 144.853 63.7161 145.187 63.4349C145.52 63.1432 145.687 62.7786 145.687 62.3307C145.687 61.9714 145.588 61.6797 145.395 61.4557C145.197 61.237 144.957 61.0703 144.666 60.9557C144.374 60.8464 143.978 60.7214 143.478 60.5807C142.864 60.4297 142.374 60.2786 141.999 60.1224C141.634 59.9557 141.322 59.7057 141.062 59.3724C140.812 59.0286 140.687 58.5599 140.687 57.9766C140.687 57.4766 140.812 57.0339 141.062 56.6432C141.322 56.2578 141.687 55.9557 142.145 55.7474C142.614 55.5286 143.15 55.4141 143.749 55.4141C144.608 55.4141 145.317 55.638 145.874 56.0807C146.426 56.513 146.739 57.0807 146.812 57.7891H145.478C145.437 57.4453 145.249 57.138 144.916 56.8724C144.593 56.5964 144.166 56.4557 143.624 56.4557C143.124 56.4557 142.713 56.5911 142.395 56.8516C142.072 57.1172 141.916 57.4766 141.916 57.9349C141.916 58.2839 142.004 58.5599 142.187 58.7682C142.379 58.9766 142.614 59.138 142.895 59.2474C143.187 59.362 143.582 59.487 144.082 59.6224C144.692 59.7891 145.176 59.9557 145.541 60.1224C145.916 60.2891 146.233 60.5495 146.499 60.8932C146.775 61.2266 146.916 61.6849 146.916 62.2682C146.916 62.7161 146.791 63.138 146.541 63.5391C146.301 63.9453 145.947 64.2682 145.478 64.5182C145.02 64.7578 144.468 64.8724 143.832 64.8724Z" fill="#225E8A"/>
<path d="M154.772 55.5391V56.5182H152.252V64.7891H151.043V56.5182H148.522V55.5391H154.772Z" fill="#225E8A"/>
<path d="M162.122 62.7266H158.101L157.351 64.7891H156.08L159.434 55.6016H160.809L164.143 64.7891H162.872L162.122 62.7266ZM161.788 61.7474L160.122 57.0807L158.434 61.7474H161.788Z" fill="#225E8A"/>
<path d="M137.015 3.13907C136.846 3.00355 136.589 2.55405 136.4 2.36235C135.637 1.57902 134.556 0.977477 133.442 1.02705C133.435 1.06011 133.868 1.13943 133.911 1.15265C135.25 1.79386 136.033 2.97381 136.691 4.25622C136.681 4.3091 136.661 4.3719 136.655 4.40165C133.849 5.0098 131.988 2.53091 131.459 0.0916876C133.667 -0.30824 136.681 0.580855 137.015 3.13907Z" fill="#82B502"/>
<path d="M137.014 3.13771C137.051 3.16745 137.047 3.17076 137.067 3.21042C137.464 2.51964 137.953 1.87513 138.581 1.36943L139.969 2.18251C138.409 3.07821 137.352 4.61843 137.157 6.41975C136.74 6.43958 136.816 6.42967 136.436 6.31068C136.416 5.65956 136.532 5.03158 136.651 4.39698C136.657 4.36723 136.677 4.30774 136.687 4.25155C136.747 3.95078 136.836 4.05324 136.724 3.65662C136.39 2.49981 135.021 1.48511 133.911 1.14799C133.871 1.13477 133.435 1.05544 133.441 1.02239C134.555 0.972811 135.636 1.57435 136.4 2.35768C136.585 2.54938 136.843 2.99889 137.014 3.1344V3.13771Z" fill="#7F9701"/>
<path d="M136.688 4.25982C136.033 2.97741 135.25 1.80076 133.908 1.15625C135.019 1.49007 136.39 2.50476 136.721 3.66488C136.837 4.06151 136.744 3.95904 136.685 4.25982H136.688Z" fill="#5E7207"/>
<path d="M136.436 6.31455C136.817 6.43354 136.741 6.44345 137.157 6.42362C137.802 6.39387 138.089 6.12615 138.654 5.95429C144.924 4.04719 147.995 11.7681 146.646 16.7953C145.879 19.6444 142.538 23.6238 139.448 23.9213C138.264 24.0336 137.392 23.1511 136.671 23.2701C136.37 23.3197 135.815 23.7527 135.372 23.8485C133.482 24.2518 130.715 22.2687 129.509 20.9069C126.025 16.9672 126.098 10.3502 130.176 6.8566C132.523 4.84705 133.885 5.52461 136.436 6.31455Z" fill="#82B502"/>
<path d="M145.129 14.4665C144.594 11.0423 142.112 7.78008 138.258 8.8741C137.934 8.96664 137.075 9.46242 136.85 9.41615C136.757 9.39632 136.143 8.96003 135.911 8.8741C132.365 7.55864 129.069 11.4951 128.894 14.754C128.422 11.2274 131.386 6.18698 135.478 7.39338C135.855 7.50575 136.635 8.0445 136.813 8.07755C137.065 8.12713 138.023 7.56855 138.4 7.46279C142.72 6.26961 145.258 10.7316 145.129 14.4632V14.4665Z" fill="#C6DE8E"/>
<path d="M145.129 14.4665C145.066 16.281 144.359 18.0989 143.216 19.5003C142.234 20.7033 139.808 22.5708 138.182 22.1874C137.855 22.1113 137.398 21.7577 137.17 21.718C136.483 21.6023 135.895 22.4452 134.682 22.2237C131.697 21.6784 128.732 17.7518 128.891 14.7573C129.066 11.4984 132.361 7.56193 135.908 8.87739C136.139 8.96333 136.754 9.39961 136.846 9.41944C137.071 9.46902 137.927 8.96994 138.254 8.87739C142.108 7.78338 144.59 11.0456 145.126 14.4698L145.129 14.4665Z" fill="#F5F9D5"/>
<path d="M140.098 9.92198C140.951 9.7402 142.485 11.1779 142.786 11.9613C142.756 12.1695 142.848 12.3943 142.66 12.5562C142.098 13.0454 140.611 11.7993 140.26 11.3465C140.026 11.0457 139.434 10.0641 140.098 9.92198Z" fill="#FEFEFE"/>
<path d="M135.914 15.5853C136.988 15.5192 135.947 16.9537 135.23 17.0628C134.013 17.2478 135.061 15.6382 135.914 15.582V15.5853Z" fill="#7F9701"/>
<path d="M138.763 13.0243C140.168 12.8359 138.575 14.8322 137.788 14.4687C137.157 14.1745 138.281 13.0904 138.763 13.0243Z" fill="#7F9701"/>
<path d="M137.861 15.5864C138.542 15.4641 139.788 16.7366 139.16 17.0307C138.409 17.3811 137.031 15.7384 137.861 15.5864Z" fill="#7F9701"/>
<path d="M134.866 13.0263C135.557 12.8148 136.859 14.1633 136.202 14.4707C135.537 14.7781 134.116 13.2577 134.866 13.0263Z" fill="#7F9701"/>
</svg>
