<svg width="28" height="22" viewBox="0 0 28 22" fill="none" xmlns="http://www.w3.org/2000/svg">
<path d="M3.43888 21.6975C2.69568 21.6975 2.05968 21.4331 1.53088 20.9043C1.00208 20.3755 0.737229 19.7391 0.736328 18.995V2.7797C0.736328 2.0365 1.00118 1.4005 1.53088 0.871698C2.06058 0.342899 2.69658 0.0780493 3.43888 0.0771484H25.0593C25.8025 0.0771484 26.4389 0.341998 26.9686 0.871698C27.4983 1.4014 27.7627 2.0374 27.7618 2.7797V18.995C27.7618 19.7382 27.4974 20.3746 26.9686 20.9043C26.4398 21.434 25.8034 21.6984 25.0593 21.6975H3.43888ZM14.2491 12.2386L3.43888 5.48225V18.995H25.0593V5.48225L14.2491 12.2386ZM14.2491 9.53607L25.0593 2.7797H3.43888L14.2491 9.53607ZM3.43888 5.48225V2.7797V18.995V5.48225Z" fill="#225E8A"/>
</svg>
