<svg width="28" height="31" viewBox="0 0 28 31" fill="none" xmlns="http://www.w3.org/2000/svg">
<path d="M22.2764 1.20801C22.7163 2.53392 22.8416 3.85801 22.6182 5.16113C22.5608 5.49686 22.4508 5.87154 22.3008 6.2793C23.1162 6.58223 23.8569 7.07789 24.6582 7.72949C26.7795 9.45453 28 12.0376 28 16.4971C28 20.7761 26.9509 24.1798 24.6699 26.7363L24.4453 26.9814C23.2205 28.2794 22.1298 29.2316 20.3486 30.0166H20.3477C19.1878 30.527 18.0923 30.4045 17.0801 30.1777V30.1768C16.6929 30.0902 16.3631 29.9367 16.1055 29.8027C15.977 29.7359 15.8474 29.6642 15.7373 29.6035C15.6213 29.5396 15.5164 29.4827 15.4102 29.4287C15.0229 29.2321 14.6193 29.0804 14.0312 29.0752H14C13.3825 29.0752 12.9661 29.2312 12.5781 29.4287C12.2943 29.5732 12.2332 29.6221 11.8975 29.7998C11.6478 29.9319 11.3228 30.0877 10.9414 30.1758L10.9424 30.1768C10.0134 30.3926 8.95256 30.5118 7.86816 30.1045L7.65137 30.0166C6.06058 29.3161 5.04732 28.4013 4.03125 27.3486L3.59375 26.8896C1.16776 24.3176 2.80432e-05 20.8931 0 16.498C0 12.1 1.14841 9.49658 3.0791 7.76758C3.92564 7.00948 4.72971 6.44429 5.6543 6.15039C6.59503 5.85138 7.52489 5.87597 8.54199 6.04492L8.78418 6.09277C9.34329 6.21964 9.86953 6.45353 10.333 6.69629C10.8635 6.97415 11.3998 7.31244 11.8652 7.59863C12.2695 7.84721 12.6297 8.05959 12.9629 8.22754C13.348 6.02069 14.0817 4.1919 15.2471 2.83984C16.7025 1.15136 18.7043 0.351633 21.0898 0.351562H21.9922L22.2764 1.20801ZM8.13281 8.51172C7.31715 8.37619 6.82832 8.40098 6.41211 8.5332C5.97959 8.67068 5.48711 8.96717 4.74707 9.62988C3.50443 10.7427 2.5 12.566 2.5 16.498C2.50003 20.4299 3.53118 23.1797 5.41309 25.1748L5.82715 25.6094C6.76233 26.5771 7.49931 27.2178 8.65918 27.7285H8.66016C9.08734 27.9169 9.5871 27.9247 10.377 27.7412H10.3789L10.5068 27.6973C10.5626 27.6739 10.6339 27.6404 10.7275 27.5908C10.8295 27.5368 11.2221 27.3143 11.4443 27.2012C11.8082 27.016 12.2351 26.8363 12.75 26.7168V26.5742H14C15.1168 26.5742 15.9207 26.8838 16.542 27.1992C16.6896 27.2741 16.8266 27.3491 16.9443 27.4141C17.0678 27.4821 17.1643 27.5359 17.2588 27.585C17.4471 27.6828 17.5521 27.7218 17.626 27.7383H17.627C18.4598 27.9249 18.9135 27.9159 19.3398 27.7285L19.8271 27.498C20.9128 26.9464 21.6646 26.2855 22.627 25.2656L22.9678 24.8838C24.6207 22.927 25.5 20.2385 25.5 16.4971C25.5 12.5493 24.4543 10.7857 23.0811 9.66895C22.2592 9.00066 21.7232 8.69815 21.2246 8.55469C20.7293 8.41219 20.1458 8.3903 19.1572 8.51758C18.494 8.60298 17.9383 9.0016 17.1289 9.63574C16.4787 10.1452 15.4465 11.0142 14.125 11.0645C14.0628 11.0703 13.9996 11.0711 13.9355 11.0674C13.2728 11.0531 12.653 10.8422 12.1289 10.6025C11.5814 10.3522 11.0384 10.0253 10.5557 9.72852C10.0493 9.41714 9.60678 9.13842 9.17285 8.91113C8.84684 8.74038 8.57493 8.62577 8.34668 8.56055L8.13281 8.51172ZM5.88672 16.8096C6.07628 16.205 6.69613 15.8307 7.33008 15.9609C8.0063 16.0999 8.44173 16.7603 8.30273 17.4365L8.25 17.7314C8.14391 18.4236 8.16009 19.1416 8.30566 19.8916L8.37012 20.1768C8.53667 20.8105 8.81165 21.2316 9.14551 21.5186C9.669 21.9686 9.72832 22.7587 9.27832 23.2822C8.82834 23.8055 8.03909 23.8648 7.51562 23.415C6.67546 22.6929 6.15625 21.7209 5.89941 20.5947L5.85156 20.3672C5.62608 19.2053 5.62356 18.0573 5.85449 16.9336L5.88672 16.8096ZM20.1357 2.91113C18.845 3.0831 17.8755 3.6201 17.1406 4.47266C16.5082 5.20653 15.9964 6.23878 15.6465 7.62109C16.3714 7.05219 17.4279 6.21966 18.8379 6.03809C19.1487 5.99807 19.4485 5.9676 19.7402 5.9502C19.9858 5.38174 20.1122 4.98687 20.1543 4.74023V4.73828L20.1992 4.41504C20.2501 3.93157 20.2288 3.43169 20.1357 2.91113Z" fill="#225E8A"/>
</svg>
