<svg width="18" height="21" viewBox="0 0 18 21" fill="none" xmlns="http://www.w3.org/2000/svg">
<path d="M9.16361 2.66136C9.0207 2.54647 8.80213 2.16537 8.64241 2.00284C7.9951 1.33872 7.07878 0.828722 6.13444 0.870755C6.12884 0.898777 6.49592 0.96603 6.53235 0.977239C7.66724 1.52086 8.33136 2.52125 8.889 3.6085C8.88059 3.65333 8.86378 3.70658 8.85817 3.7318C6.47911 4.2474 4.90148 2.14575 4.45312 0.0777344C6.32499 -0.261331 8.88059 0.492459 9.16361 2.66136Z" fill="#82B502"/>
<path d="M9.164 2.66155C9.19482 2.68677 9.19202 2.68957 9.20884 2.7232C9.5451 2.13754 9.95982 1.59111 10.4922 1.16238L11.6692 1.85172C10.3465 2.61111 9.44982 3.91693 9.28449 5.44413C8.93142 5.46094 8.99587 5.45254 8.67362 5.35166C8.6568 4.79962 8.75488 4.26721 8.85576 3.72919C8.86136 3.70397 8.87818 3.65353 8.88658 3.60589C8.93702 3.35089 9.01268 3.43776 8.91741 3.10149C8.63439 2.12073 7.47428 1.26045 6.53274 0.974629C6.49911 0.96342 6.12922 0.896167 6.13483 0.868145C7.07917 0.826113 7.99549 1.33611 8.64279 2.00023C8.79972 2.16276 9.01829 2.54386 9.164 2.65875V2.66155Z" fill="#7F9701"/>
<path d="M8.88594 3.61124C8.33111 2.52399 7.66699 1.52641 6.5293 0.97998C7.47083 1.263 8.63374 2.12328 8.91396 3.10685C9.01204 3.44311 8.93358 3.35624 8.88314 3.61124H8.88594Z" fill="#5E7207"/>
<path d="M8.67328 5.35414C8.99553 5.45502 8.93108 5.46343 9.28416 5.44662C9.83058 5.4214 10.0744 5.19442 10.5536 5.0487C15.8693 3.43184 18.4726 9.97776 17.3293 14.2399C16.6791 16.6554 13.8461 20.0292 11.2261 20.2814C10.2229 20.3767 9.48311 19.6285 8.87223 19.7294C8.61723 19.7714 8.14647 20.1385 7.77097 20.2198C6.16812 20.5617 3.82268 18.8803 2.79988 17.7258C-0.153633 14.3856 -0.091985 8.77562 3.36592 5.8137C5.35548 4.10997 6.50998 4.68442 8.67328 5.35414Z" fill="#82B502"/>
<path d="M16.0427 12.2642C15.5887 9.36109 13.4843 6.59532 10.2169 7.52285C9.94231 7.60131 9.21374 8.02164 9.02319 7.98241C8.94473 7.9656 8.42352 7.59571 8.22737 7.52285C5.22062 6.40758 2.42683 9.74499 2.27831 12.508C1.8776 9.51801 4.39117 5.24467 7.86028 6.26747C8.17973 6.36274 8.84105 6.8195 8.99237 6.84752C9.20533 6.88956 10.018 6.41598 10.3374 6.32631C13.9999 5.31472 16.152 9.09768 16.0427 12.2614V12.2642Z" fill="#C6DE8E"/>
<path d="M16.0429 12.2643C15.9896 13.8027 15.3899 15.3439 14.4204 16.532C13.5881 17.552 11.5313 19.1353 10.1526 18.8102C9.87523 18.7458 9.48852 18.4459 9.29517 18.4123C8.71232 18.3142 8.21352 19.0288 7.18512 18.841C4.65474 18.3787 2.14117 15.0497 2.27568 12.5109C2.42419 9.74792 5.21798 6.41051 8.22473 7.52578C8.42089 7.59864 8.94209 7.96853 9.02056 7.98534C9.21111 8.02738 9.93687 7.60425 10.2143 7.52578C13.4816 6.59826 15.5861 9.36402 16.0401 12.2671L16.0429 12.2643Z" fill="#F5F9D5"/>
<path d="M11.7775 8.41129C12.5005 8.25717 13.8007 9.47612 14.0557 10.1402C14.0305 10.3168 14.109 10.5073 13.9492 10.6446C13.4729 11.0594 12.2119 10.0029 11.9148 9.61903C11.7159 9.36403 11.2143 8.53178 11.7775 8.41129Z" fill="#FEFEFE"/>
<path d="M8.23103 13.2142C9.14225 13.1582 8.25907 14.3743 7.65066 14.4668C6.61889 14.6237 7.50767 13.2591 8.23103 13.2114V13.2142Z" fill="#7F9701"/>
<path d="M10.6465 11.0424C11.8381 10.8827 10.4867 12.5752 9.81939 12.267C9.28388 12.0176 10.2371 11.0984 10.6465 11.0424Z" fill="#7F9701"/>
<path d="M9.88026 13.214C10.4578 13.1103 11.5148 14.1892 10.9821 14.4386C10.3457 14.7356 9.17652 13.3429 9.88026 13.214Z" fill="#7F9701"/>
<path d="M7.34183 11.0424C7.92781 10.8631 9.03248 12.0064 8.47454 12.267C7.91099 12.5276 6.70538 11.2386 7.34183 11.0424Z" fill="#7F9701"/>
</svg>
