<svg width="27" height="28" viewBox="0 0 27 28" fill="none" xmlns="http://www.w3.org/2000/svg">
<path d="M7.84444 2.27344C8.52008 2.27344 11.2226 8.35417 11.2226 9.02981C11.2226 10.3811 9.19572 11.7324 8.52008 13.0836C7.84444 14.4349 9.19572 15.7862 10.547 17.1375C11.074 17.6645 13.2495 19.84 14.6008 19.1644C15.9521 18.4887 17.3034 16.4618 18.6546 16.4618C19.3303 16.4618 25.411 19.1644 25.411 19.84C25.411 22.5426 23.3841 24.5695 21.3572 25.2451C19.3303 25.9207 17.979 25.9207 15.2765 25.2451C12.5739 24.5695 10.547 23.8938 7.16881 20.5156C3.79062 17.1375 3.11498 15.1105 2.43935 12.408C1.76371 9.70545 1.76371 8.35417 2.43935 6.32726C3.11498 4.30035 5.14189 2.27344 7.84444 2.27344Z" stroke="#225E8A" stroke-width="2.70255" stroke-linecap="round" stroke-linejoin="round"/>
</svg>
