<svg width="23" height="31" viewBox="0 0 23 31" fill="none" xmlns="http://www.w3.org/2000/svg">
<path d="M3.00033 30.1665C2.22116 30.1665 1.55438 29.8893 0.999992 29.3349C0.445603 28.7805 0.167937 28.1133 0.166992 27.3332V13.1665C0.166992 12.3873 0.444659 11.7206 0.999992 11.1662C1.55533 10.6118 2.2221 10.3341 3.00033 10.3332H4.41699V7.49984C4.41699 5.54012 5.10785 3.86987 6.48958 2.48909C7.8713 1.10831 9.54155 0.417449 11.5003 0.416505C13.4591 0.41556 15.1298 1.10642 16.5125 2.48909C17.8952 3.87175 18.5855 5.542 18.5837 7.49984V10.3332H20.0003C20.7795 10.3332 21.4467 10.6108 22.0021 11.1662C22.5574 11.7215 22.8346 12.3883 22.8337 13.1665V27.3332C22.8337 28.1123 22.5565 28.7796 22.0021 29.3349C21.4477 29.8903 20.7804 30.1674 20.0003 30.1665H3.00033ZM3.00033 27.3332H20.0003V13.1665H3.00033V27.3332ZM11.5003 23.0832C12.2795 23.0832 12.9467 22.806 13.5021 22.2516C14.0574 21.6972 14.3346 21.0299 14.3337 20.2498C14.3327 19.4697 14.0555 18.803 13.5021 18.2495C12.9486 17.6961 12.2814 17.4184 11.5003 17.4165C10.7193 17.4146 10.0525 17.6923 9.49999 18.2495C8.94749 18.8067 8.66983 19.4735 8.66699 20.2498C8.66416 21.0262 8.94183 21.6934 9.49999 22.2516C10.0582 22.8098 10.7249 23.0869 11.5003 23.0832ZM7.25033 10.3332H15.7503V7.49984C15.7503 6.31928 15.3371 5.31581 14.5107 4.48942C13.6844 3.66303 12.6809 3.24984 11.5003 3.24984C10.3198 3.24984 9.3163 3.66303 8.48991 4.48942C7.66352 5.31581 7.25033 6.31928 7.25033 7.49984V10.3332Z" fill="#225E8A"/>
</svg>
