<svg width="52" height="52" viewBox="0 0 52 52" fill="none" xmlns="http://www.w3.org/2000/svg">
<path d="M51.1868 29.3678C51.1868 33.8601 47.8687 37.5866 43.5296 38.1992V45.9585C43.5296 47.3124 42.9918 48.6108 42.0344 49.5681C41.0771 50.5255 39.7787 51.0633 38.4248 51.0633H28.7256V50.2976C28.7256 48.4698 27.9996 46.717 26.7072 45.4245C25.4148 44.1321 23.6619 43.4061 21.8341 43.4061C18.0055 43.4061 14.9426 46.4945 14.9426 50.2976V51.0633H5.24349C3.88961 51.0633 2.59118 50.5255 1.63384 49.5681C0.676499 48.6108 0.138672 47.3124 0.138672 45.9585V36.2593H0.904394C4.70748 36.2593 7.7959 33.1964 7.7959 29.3678C7.7959 25.5392 4.70748 22.4763 0.904394 22.4763H0.138672V12.7772C0.138672 11.4233 0.676499 10.1249 1.63384 9.16753C2.59118 8.21019 3.88961 7.67236 5.24349 7.67236H13.0028C13.6154 3.33327 17.3419 0.0151367 21.8341 0.0151367C26.3264 0.0151367 30.0529 3.33327 30.6655 7.67236H38.4248C39.7787 7.67236 41.0771 8.21019 42.0344 9.16753C42.9918 10.1249 43.5296 11.4233 43.5296 12.7772V20.5365C47.8687 21.1491 51.1868 24.8756 51.1868 29.3678ZM38.4248 33.1964H42.2534C43.2688 33.1964 44.2426 32.7931 44.9606 32.0751C45.6786 31.3571 46.082 30.3832 46.082 29.3678C46.082 28.3524 45.6786 27.3786 44.9606 26.6606C44.2426 25.9426 43.2688 25.5392 42.2534 25.5392H38.4248V12.7772H25.6628V8.94856C25.6628 7.93315 25.2594 6.95933 24.5414 6.24133C23.8234 5.52332 22.8496 5.11995 21.8341 5.11995C20.8187 5.11995 19.8449 5.52332 19.1269 6.24133C18.4089 6.95933 18.0055 7.93315 18.0055 8.94856V12.7772H5.24349V18.1883C9.73573 19.9239 12.9007 24.263 12.9007 29.3678C12.9007 34.4726 9.7102 38.8117 5.24349 40.5474V45.9585H10.6546C11.5292 43.7041 13.0647 41.7667 15.0597 40.4003C17.0547 39.0338 19.4161 38.3022 21.8341 38.3013C26.939 38.3013 31.278 41.4918 33.0137 45.9585H38.4248V33.1964Z" fill="#225E8A"/>
</svg>
