<svg width="33" height="30" viewBox="0 0 33 30" fill="none" xmlns="http://www.w3.org/2000/svg">
<path d="M16.5 8.62501C17.5625 4.43079 21.5754 2.28919 30.3125 2.25001C30.4522 2.24948 30.5906 2.2766 30.7197 2.32981C30.8489 2.38302 30.9662 2.46126 31.065 2.56003C31.1638 2.6588 31.242 2.77614 31.2952 2.90528C31.3484 3.03443 31.3755 3.17283 31.375 3.31251V22.4375C31.375 22.7193 31.2631 22.9896 31.0638 23.1888C30.8646 23.3881 30.5943 23.5 30.3125 23.5C21.8125 23.5 18.5287 25.214 16.5 27.75M16.5 8.62501C15.4375 4.43079 11.4246 2.28919 2.68751 2.25001C2.54783 2.24948 2.40943 2.2766 2.28028 2.32981C2.15114 2.38302 2.0338 2.46126 1.93503 2.56003C1.83626 2.6588 1.75802 2.77614 1.70481 2.90528C1.6516 3.03443 1.62448 3.17283 1.62501 3.31251V22.3093C1.62501 22.9654 2.03141 23.5 2.68751 23.5C11.1875 23.5 14.4832 25.2266 16.5 27.75M16.5 8.62501V27.75" stroke="#225E8A" stroke-width="3" stroke-linecap="round" stroke-linejoin="round"/>
</svg>
