<svg width="42" height="52" viewBox="0 0 42 52" fill="none" xmlns="http://www.w3.org/2000/svg">
<path d="M20.6629 51.2986C14.7498 49.8097 9.86793 46.4167 6.0172 41.1196C2.16647 35.8225 0.241952 29.9418 0.243653 23.4774V7.90771L20.6629 0.250488L41.0822 7.90771V23.4774C41.0822 29.9435 39.1577 35.8251 35.3086 41.1222C31.4596 46.4193 26.5777 49.8114 20.6629 51.2986ZM20.6629 45.9386C25.0871 44.5348 28.7455 41.7271 31.6383 37.5156C34.531 33.3042 35.9774 28.6248 35.9774 23.4774V11.4173L20.6629 5.67436L5.34847 11.4173V23.4774C5.34847 28.6248 6.79483 33.3042 9.68756 37.5156C12.5803 41.7271 16.2387 44.5348 20.6629 45.9386Z" fill="#225E8A"/>
</svg>
