<svg width="29" height="26" viewBox="0 0 29 26" fill="none" xmlns="http://www.w3.org/2000/svg">
<path d="M12.375 21.5C13.5486 21.5 14.5 22.4514 14.5 23.625C14.5 24.7986 13.5486 25.75 12.375 25.75C11.2014 25.75 10.25 24.7986 10.25 23.625C10.25 22.4514 11.2014 21.5 12.375 21.5ZM22.292 21.5C23.4656 21.5 24.417 22.4514 24.417 23.625C24.417 24.7986 23.4656 25.75 22.292 25.75C21.1184 25.75 20.167 24.7986 20.167 23.625C20.167 22.4514 21.1184 21.5 22.292 21.5ZM3.6377 0.25C4.19723 0.248077 4.74527 0.412446 5.21094 0.722656C5.67654 1.03289 6.03918 1.47515 6.25293 1.99219L7.8877 5.91699H27.25C27.4789 5.91712 27.7045 5.97281 27.9072 6.0791C28.1099 6.18543 28.2838 6.33913 28.4141 6.52734C28.5446 6.71535 28.6278 6.93209 28.6562 7.15918C28.6846 7.38641 28.6575 7.61758 28.5771 7.83203L24.3271 19.165C24.1189 19.716 23.5906 20.0829 23 20.083H11.666C11.3866 20.083 11.1134 20.0006 10.8809 19.8457C10.6482 19.6907 10.466 19.47 10.3584 19.2119L3.6377 3.08301H0.333008V0.25H3.6377ZM12.6113 17.25H22.0176L25.2051 8.75H9.06934L12.6113 17.25Z" fill="#225E8A"/>
</svg>
