<svg width="30" height="29" viewBox="0 0 30 29" fill="none" xmlns="http://www.w3.org/2000/svg">
<path d="M17.1247 28.9344C14.5747 28.9344 12.4025 28.0372 10.608 26.2427C8.81356 24.4483 7.91634 22.2761 7.91634 19.7261V18.9115C5.88579 18.5809 4.19759 17.6304 2.85176 16.0597C1.50592 14.4891 0.833008 12.6418 0.833008 10.5177V2.01774H5.08301V0.601074H7.91634V6.26774H5.08301V4.85107H3.66634V10.5177C3.66634 12.0761 4.2212 13.4101 5.33092 14.5198C6.44065 15.6295 7.77467 16.1844 9.33301 16.1844C10.8913 16.1844 12.2254 15.6295 13.3351 14.5198C14.4448 13.4101 14.9997 12.0761 14.9997 10.5177V4.85107H13.583V6.26774H10.7497V0.601074H13.583V2.01774H17.833V10.5177C17.833 12.6427 17.1601 14.4905 15.8143 16.0612C14.4684 17.6318 12.7802 18.5819 10.7497 18.9115V19.7261C10.7497 21.4969 11.3697 23.0024 12.6098 24.2424C13.8498 25.4825 15.3548 26.102 17.1247 26.1011C18.8946 26.1001 20.4 25.4806 21.641 24.2424C22.882 23.0042 23.5016 21.4988 23.4997 19.7261V17.3532C22.6733 17.0698 21.9947 16.5622 21.4639 15.8302C20.9331 15.0983 20.6673 14.2719 20.6663 13.3511C20.6663 12.1705 21.0795 11.167 21.9059 10.3407C22.7323 9.51427 23.7358 9.10107 24.9163 9.10107C26.0969 9.10107 27.1004 9.51427 27.9268 10.3407C28.7531 11.167 29.1663 12.1705 29.1663 13.3511C29.1663 14.2719 28.901 15.0983 28.3702 15.8302C27.8394 16.5622 27.1603 17.0698 26.333 17.3532V19.7261C26.333 22.2761 25.4358 24.4483 23.6413 26.2427C21.8469 28.0372 19.6747 28.9344 17.1247 28.9344Z" fill="#225E8A"/>
</svg>
