<svg width="58" height="58" viewBox="0 0 58 58" fill="none" xmlns="http://www.w3.org/2000/svg">
<path d="M18.1052 2.49463C24.0146 0.135737 30.5409 -0.194334 36.658 1.55713C37.3862 1.77008 38.0007 2.26279 38.3669 2.92725C38.7332 3.59181 38.821 4.37451 38.6121 5.104C38.4031 5.83351 37.9143 6.45089 37.2517 6.8208C36.5891 7.19071 35.8066 7.28357 35.0759 7.07861C31.6555 6.09646 28.0537 5.92201 24.5544 6.56982C21.0552 7.21766 17.7541 8.66943 14.9119 10.811C12.0698 12.9526 9.76393 15.7257 8.17651 18.9106C6.5891 22.0958 5.76319 25.6067 5.7644 29.1655C5.76834 32.4503 6.47656 35.6963 7.84155 38.6841C9.20654 41.6718 11.197 44.3316 13.6775 46.4849C16.158 48.6382 19.0715 50.2349 22.2214 51.1665C25.3713 52.098 28.6846 52.3429 31.9373 51.8853C35.1899 51.4275 38.3065 50.2778 41.0769 48.5132C43.8474 46.7485 46.2078 44.41 47.9978 41.6558C49.7877 38.9016 50.9664 35.7956 51.4539 32.5474C51.9413 29.299 51.7256 25.984 50.823 22.8257C50.6963 22.4567 50.6464 22.0653 50.6755 21.6763C50.7047 21.2873 50.8126 20.9079 50.9929 20.562C51.1733 20.2161 51.4222 19.9103 51.7244 19.6636C52.0265 19.417 52.3759 19.2349 52.7507 19.1274C53.1257 19.02 53.519 18.9903 53.906 19.0396C54.293 19.0889 54.6665 19.2165 55.0027 19.4146C55.3385 19.6125 55.6305 19.8766 55.8611 20.1909C56.0918 20.5055 56.2567 20.8645 56.3445 21.2446C58.0922 27.3608 57.7599 33.8844 55.4001 39.7915C53.0403 45.6986 48.7862 50.6557 43.3054 53.8843C37.8246 57.1128 31.4265 58.4301 25.116 57.6304C18.8057 56.8305 12.9393 53.9588 8.43726 49.4653C3.93999 44.9643 1.06409 39.0967 0.262451 32.7847C-0.53914 26.4726 0.778188 20.0726 4.00757 14.5903C7.23697 9.10811 12.196 4.85355 18.1052 2.49463ZM20.4294 14.0708C23.5639 12.3463 27.1578 11.6407 30.7117 12.0513C31.0922 12.0866 31.4624 12.1974 31.7996 12.3774C32.1366 12.5575 32.4346 12.8036 32.6755 13.1001C32.9163 13.3966 33.0957 13.7383 33.2029 14.105C33.31 14.4717 33.3429 14.8562 33.2996 15.2358C33.2562 15.6156 33.137 15.9827 32.95 16.3159C32.7629 16.6491 32.5113 16.9416 32.2097 17.1763C31.9081 17.4109 31.563 17.5836 31.1941 17.6831C30.8252 17.7825 30.4399 17.8067 30.0613 17.7554C28.452 17.5685 26.821 17.7244 25.2761 18.2124C23.7314 18.7004 22.3072 19.51 21.0974 20.5874C19.8875 21.6649 18.9196 22.9871 18.2566 24.4653C17.5937 25.9435 17.2507 27.5455 17.2507 29.1655C17.251 31.2579 17.8221 33.3106 18.9031 35.1021C19.9843 36.8937 21.5351 38.357 23.3865 39.3325C25.2377 40.3078 27.32 40.7592 29.4089 40.6382C31.498 40.5171 33.5148 39.8279 35.241 38.645C36.9669 37.4591 38.3362 35.8232 39.2 33.9155C40.0636 32.008 40.3888 29.9001 40.1414 27.8208C40.0746 27.3165 40.1434 26.8034 40.3406 26.3345C40.5379 25.8654 40.857 25.4568 41.2644 25.1519C41.672 24.8469 42.1541 24.6562 42.6599 24.5991C43.1656 24.5421 43.6772 24.6212 44.1423 24.8276C44.6075 25.0315 45.011 25.3549 45.3103 25.7651C45.6094 26.1753 45.7943 26.6576 45.8464 27.1626C46.2624 30.7158 45.5621 34.3107 43.8425 37.4478C42.1228 40.5848 39.4689 43.1089 36.2498 44.6694C33.0304 46.2299 29.4048 46.7492 25.8767 46.1558C22.3487 45.5623 19.0929 43.8857 16.5613 41.3579C14.0296 38.8301 12.3476 35.5765 11.7488 32.0493C11.1501 28.5225 11.6641 24.8968 13.2195 21.6753C14.7751 18.4536 17.295 15.7953 20.4294 14.0708ZM47.864 0.427246C48.0317 0.38554 48.2075 0.389795 48.3728 0.439941C48.7135 0.539485 48.967 0.822905 49.0359 1.16748L50.3181 7.58447L56.7351 8.8667C57.0795 8.93566 57.3631 9.18825 57.4626 9.52881C57.5129 9.69431 57.5171 9.87073 57.4753 10.0386C57.4335 10.2064 57.3474 10.3603 57.2253 10.4829L51.9685 15.7427C51.3386 16.369 50.4867 16.7216 49.5984 16.7231H45.2371L34.2878 27.6772C34.4966 28.4658 34.5347 29.2897 34.4001 30.0942C34.2655 30.899 33.9608 31.6664 33.5066 32.3442C33.0524 33.0219 32.4594 33.5955 31.7664 34.0259C31.0732 34.4564 30.296 34.7336 29.4871 34.8403C28.6782 34.947 27.8559 34.8801 27.075 34.644C26.2939 34.4079 25.5712 34.0081 24.9568 33.4712C24.3426 32.9344 23.85 32.2728 23.5115 31.5308C23.1729 30.7885 22.9957 29.9823 22.9929 29.1665C22.9927 28.2854 23.196 27.4158 23.5857 26.6255C23.9754 25.8351 24.5417 25.1443 25.241 24.6079C25.9402 24.0716 26.7536 23.7033 27.6179 23.5317C28.4822 23.3602 29.3743 23.3902 30.2253 23.6187L41.1794 12.6606V8.30811C41.1794 7.41997 41.5312 6.56586 42.1589 5.93799L47.4197 0.677246C47.5423 0.555224 47.6961 0.469044 47.864 0.427246Z" fill="#225E8A"/>
</svg>
