<svg width="62" height="62" viewBox="0 0 62 62" fill="none" xmlns="http://www.w3.org/2000/svg">
<path d="M45.9783 0.0703125C46.4859 0.0706509 46.973 0.272687 47.3318 0.631836C47.6906 0.991077 47.8917 1.47862 47.8914 1.98633V5.81445H56.1863C57.5397 5.81445 58.8384 6.35278 59.7957 7.30957C60.7527 8.26629 61.291 9.56375 61.2917 10.917V56.2227C61.2917 57.5764 60.7538 58.8748 59.7966 59.832C58.8393 60.7894 57.5402 61.3271 56.1863 61.3271H5.13843C3.78462 61.3271 2.48635 60.7893 1.52905 59.832C0.571772 58.8747 0.0340006 57.5764 0.0339355 56.2227V10.917C0.0346601 9.56366 0.572865 8.26631 1.53003 7.30957C2.48726 6.35282 3.78504 5.81449 5.13843 5.81445H13.4343V1.9834C13.4348 1.47582 13.6367 0.98954 13.9958 0.630859C14.3551 0.272125 14.8417 0.0700031 15.3494 0.0703125C15.6007 0.07048 15.8496 0.120489 16.0818 0.216797C16.3139 0.313127 16.5253 0.45403 16.7029 0.631836C16.8805 0.809714 17.0209 1.02159 17.1169 1.25391C17.213 1.48619 17.2626 1.73498 17.2625 1.98633V5.81445H28.7488V1.9834C28.7492 1.47582 28.9511 0.98954 29.3103 0.630859C29.6695 0.272126 30.1562 0.0700013 30.6638 0.0703125C30.9151 0.0704801 31.1641 0.120488 31.3962 0.216797C31.6284 0.313127 31.8397 0.454029 32.0173 0.631836C32.195 0.809714 32.3354 1.02159 32.4314 1.25391C32.5274 1.48619 32.5771 1.73498 32.5769 1.98633V5.81445H44.0632V1.9834C44.0637 1.47582 44.2656 0.98954 44.6248 0.630859C44.984 0.272125 45.4706 0.0699998 45.9783 0.0703125ZM5.13843 9.64648C4.80055 9.64652 4.47627 9.77993 4.23706 10.0186C3.9978 10.2573 3.86274 10.5819 3.86206 10.9199V56.2246C3.86206 56.563 3.9969 56.8876 4.23608 57.127C4.47539 57.3663 4.80001 57.5009 5.13843 57.501H56.1892C56.527 57.5003 56.8509 57.3659 57.0896 57.127C57.3284 56.8877 57.4626 56.5626 57.4626 56.2246L57.4607 10.9199C57.46 10.5823 57.3254 10.2582 57.0867 10.0195C56.848 9.7809 56.5238 9.64716 56.1863 9.64648H47.8914V13.4775C47.8909 13.985 47.6889 14.4714 47.3298 14.8301C46.9706 15.1888 46.483 15.391 45.9753 15.3906C45.468 15.3902 44.9814 15.188 44.6228 14.8291C44.264 14.4699 44.0629 13.9823 44.0632 13.4746V9.64648H32.5769V13.4775C32.5765 13.985 32.3744 14.4714 32.0154 14.8301C31.6561 15.1888 31.1686 15.391 30.6609 15.3906C30.1535 15.3902 29.667 15.188 29.3083 14.8291C28.9496 14.4699 28.7484 13.9823 28.7488 13.4746V9.64648H17.2625V13.4775C17.262 13.985 17.06 14.4714 16.7009 14.8301C16.3417 15.1888 15.8541 15.391 15.3464 15.3906C14.8391 15.3902 14.3525 15.188 13.9939 14.8291C13.6351 14.4699 13.434 13.9823 13.4343 13.4746V9.64648H5.13843ZM21.0916 47.9287H13.4343V42.1855H21.0916V47.9287ZM34.491 47.9287H26.8337V42.1855H34.491V47.9287ZM47.8914 47.9287H40.2341V42.1855H47.8914V47.9287ZM21.0916 38.3564H13.4343V32.6143H21.0916V38.3564ZM34.491 38.3564H26.8337V32.6143H34.491V38.3564ZM47.8914 38.3564H40.2341V32.6143H47.8914V38.3564ZM21.0916 28.7852H13.4343V23.042H21.0916V28.7852ZM34.491 28.7852H26.8337V23.042H34.491V28.7852ZM47.8914 28.7852H40.2341V23.042H47.8914V28.7852Z" fill="#225E8A"/>
</svg>
